  0
SECTION
  2
HEADER
  9
$ACADVER
  1
AC1018
  9
$ACADMAINTVER
 70
     0
  9
$DWGCODEPAGE
  3
ANSI_1252
  9
$INSBASE
 10
0.0
 20
0.0
 30
0.0
  9
$EXTMIN
 10
30.3144614
 20
59.9680371486732
 30
0.0
  9
$EXTMAX
 10
30.3190923
 20
59.9708706029365
 30
0.0
  9
$LIMMIN
 10
0.0
 20
0.0
  9
$LIMMAX
 10
12.0
 20
9.0
  9
$ORTHOMODE
 70
     0
  9
$REGENMODE
 70
     1
  9
$FILLMODE
 70
     1
  9
$QTEXTMODE
 70
     0
  9
$MIRRTEXT
 70
     1
  9
$LTSCALE
 40
1.0
  9
$ATTMODE
 70
     1
  9
$TEXTSIZE
 40
0.2
  9
$TRACEWID
 40
0.05
  9
$TEXTSTYLE
  7
Standard
  9
$CLAYER
  8
0
  9
$CELTYPE
  6
ByLayer
  9
$CECOLOR
 62
   256
  9
$CELTSCALE
 40
1.0
  9
$DISPSILH
 70
     0
  9
$DIMSCALE
 40
1.0
  9
$DIMASZ
 40
0.18
  9
$DIMEXO
 40
0.0625
  9
$DIMDLI
 40
0.38
  9
$DIMRND
 40
0.0
  9
$DIMDLE
 40
0.0
  9
$DIMEXE
 40
0.18
  9
$DIMTP
 40
0.0
  9
$DIMTM
 40
0.0
  9
$DIMTXT
 40
0.18
  9
$DIMCEN
 40
0.09
  9
$DIMTSZ
 40
0.0
  9
$DIMTOL
 70
     0
  9
$DIMLIM
 70
     0
  9
$DIMTIH
 70
     1
  9
$DIMTOH
 70
     1
  9
$DIMSE1
 70
     0
  9
$DIMSE2
 70
     0
  9
$DIMTAD
 70
     0
  9
$DIMZIN
 70
     0
  9
$DIMBLK
  1

  9
$DIMASO
 70
     1
  9
$DIMSHO
 70
     1
  9
$DIMPOST
  1

  9
$DIMAPOST
  1

  9
$DIMALT
 70
     0
  9
$DIMALTD
 70
     2
  9
$DIMALTF
 40
25.4
  9
$DIMLFAC
 40
1.0
  9
$DIMTOFL
 70
     0
  9
$DIMTVP
 40
0.0
  9
$DIMTIX
 70
     0
  9
$DIMSOXD
 70
     0
  9
$DIMSAH
 70
     0
  9
$DIMBLK1
  1

  9
$DIMBLK2
  1

  9
$DIMSTYLE
  2
Standard
  9
$DIMCLRD
 70
     0
  9
$DIMCLRE
 70
     0
  9
$DIMCLRT
 70
     0
  9
$DIMTFAC
 40
1.0
  9
$DIMGAP
 40
0.09
  9
$DIMJUST
 70
     0
  9
$DIMSD1
 70
     0
  9
$DIMSD2
 70
     0
  9
$DIMTOLJ
 70
     1
  9
$DIMTZIN
 70
     0
  9
$DIMALTZ
 70
     0
  9
$DIMALTTZ
 70
     0
  9
$DIMUPT
 70
     0
  9
$DIMDEC
 70
     4
  9
$DIMTDEC
 70
     4
  9
$DIMALTU
 70
     2
  9
$DIMALTTD
 70
     2
  9
$DIMTXSTY
  7
Standard
  9
$DIMAUNIT
 70
     0
  9
$DIMADEC
 70
     0
  9
$DIMALTRND
 40
0.0
  9
$DIMAZIN
 70
     0
  9
$DIMDSEP
 70
    46
  9
$DIMATFIT
 70
     3
  9
$DIMFRAC
 70
     0
  9
$DIMLDRBLK
  1

  9
$DIMLUNIT
 70
     2
  9
$DIMLWD
 70
    -2
  9
$DIMLWE
 70
    -2
  9
$DIMTMOVE
 70
     0
  9
$LUNITS
 70
     2
  9
$LUPREC
 70
     4
  9
$SKETCHINC
 40
0.1
  9
$FILLETRAD
 40
0.5
  9
$AUNITS
 70
     0
  9
$AUPREC
 70
     0
  9
$MENU
  1
.
  9
$ELEVATION
 40
0.0
  9
$PELEVATION
 40
0.0
  9
$THICKNESS
 40
0.0
  9
$LIMCHECK
 70
     0
  9
$CHAMFERA
 40
0.5
  9
$CHAMFERB
 40
0.5
  9
$CHAMFERC
 40
1.0
  9
$CHAMFERD
 40
0.0
  9
$SKPOLY
 70
     0
  9
$TDCREATE
 40
2455343.56230316
  9
$TDUCREATE
 40
2455343.728969826
  9
$TDUPDATE
 40
2455343.562303171
  9
$TDUUPDATE
 40
2455343.728969838
  9
$TDINDWG
 40
0.0000000116
  9
$TDUSRTIMER
 40
0.0000000116
  9
$USRTIMER
 70
     1
  9
$ANGBASE
 50
0.0
  9
$ANGDIR
 70
     0
  9
$PDMODE
 70
     0
  9
$PDSIZE
 40
0.0
  9
$PLINEWID
 40
0.0
  9
$SPLFRAME
 70
     0
  9
$SPLINETYPE
 70
     6
  9
$SPLINESEGS
 70
     8
  9
$HANDSEED
  5
00020039
  9
$SURFTAB1
 70
     6
  9
$SURFTAB2
 70
     6
  9
$SURFTYPE
 70
     6
  9
$SURFU
 70
     6
  9
$SURFV
 70
     6
  9
$UCSBASE
  2

  9
$UCSNAME
  2

  9
$UCSORG
 10
0.0
 20
0.0
 30
0.0
  9
$UCSXDIR
 10
1.0
 20
0.0
 30
0.0
  9
$UCSYDIR
 10
0.0
 20
1.0
 30
0.0
  9
$UCSORTHOREF
  2

  9
$UCSORTHOVIEW
 70
     0
  9
$UCSORGTOP
 10
0.0
 20
0.0
 30
0.0
  9
$UCSORGBOTTOM
 10
0.0
 20
0.0
 30
0.0
  9
$UCSORGLEFT
 10
0.0
 20
0.0
 30
0.0
  9
$UCSORGRIGHT
 10
0.0
 20
0.0
 30
0.0
  9
$UCSORGFRONT
 10
0.0
 20
0.0
 30
0.0
  9
$UCSORGBACK
 10
0.0
 20
0.0
 30
0.0
  9
$PUCSBASE
  2

  9
$PUCSNAME
  2

  9
$PUCSORG
 10
0.0
 20
0.0
 30
0.0
  9
$PUCSXDIR
 10
1.0
 20
0.0
 30
0.0
  9
$PUCSYDIR
 10
0.0
 20
1.0
 30
0.0
  9
$PUCSORTHOREF
  2

  9
$PUCSORTHOVIEW
 70
     0
  9
$PUCSORGTOP
 10
0.0
 20
0.0
 30
0.0
  9
$PUCSORGBOTTOM
 10
0.0
 20
0.0
 30
0.0
  9
$PUCSORGLEFT
 10
0.0
 20
0.0
 30
0.0
  9
$PUCSORGRIGHT
 10
0.0
 20
0.0
 30
0.0
  9
$PUCSORGFRONT
 10
0.0
 20
0.0
 30
0.0
  9
$PUCSORGBACK
 10
0.0
 20
0.0
 30
0.0
  9
$USERI1
 70
     0
  9
$USERI2
 70
     0
  9
$USERI3
 70
     0
  9
$USERI4
 70
     0
  9
$USERI5
 70
     0
  9
$USERR1
 40
0.0
  9
$USERR2
 40
0.0
  9
$USERR3
 40
0.0
  9
$USERR4
 40
0.0
  9
$USERR5
 40
0.0
  9
$WORLDVIEW
 70
     1
  9
$SHADEDGE
 70
     3
  9
$SHADEDIF
 70
    70
  9
$TILEMODE
 70
     1
  9
$MAXACTVP
 70
    64
  9
$PINSBASE
 10
0.0
 20
0.0
 30
0.0
  9
$PLIMCHECK
 70
     0
  9
$PEXTMIN
 10
1.000000000000000E+20
 20
1.000000000000000E+20
 30
1.000000000000000E+20
  9
$PEXTMAX
 10
-1.000000000000000E+20
 20
-1.000000000000000E+20
 30
-1.000000000000000E+20
  9
$PLIMMIN
 10
0.0
 20
0.0
  9
$PLIMMAX
 10
12.0
 20
9.0
  9
$UNITMODE
 70
     0
  9
$VISRETAIN
 70
     1
  9
$PLINEGEN
 70
     0
  9
$PSLTSCALE
 70
     1
  9
$TREEDEPTH
 70
  3020
  9
$CMLSTYLE
  2
Standard
  9
$CMLJUST
 70
     0
  9
$CMLSCALE
 40
1.0
  9
$PROXYGRAPHICS
 70
     1
  9
$MEASUREMENT
 70
     0
  9
$CELWEIGHT
370
    -1
  9
$ENDCAPS
280
     0
  9
$JOINSTYLE
280
     0
  9
$LWDISPLAY
290
     0
  9
$INSUNITS
 70
     1
  9
$HYPERLINKBASE
  1

  9
$STYLESHEET
  1

  9
$XEDIT
290
     1
  9
$CEPSNTYPE
380
     0
  9
$PSTYLEMODE
290
     1
  9
$FINGERPRINTGUID
  2
{E7F7769E-AACA-40AB-9EF3-61BBAFBCBA26}
  9
$VERSIONGUID
  2
{FAEB1C32-E019-11D5-929B-00C0DF256EC4}
  9
$EXTNAMES
290
     1
  9
$PSVPSCALE
 40
0.0
  9
$OLESTARTUP
290
     0
  9
$SORTENTS
280
   127
  9
$INDEXCTL
280
     0
  9
$HIDETEXT
280
     1
  9
$XCLIPFRAME
290
     0
  9
$HALOGAP
280
     0
  9
$OBSCOLOR
 70
   257
  9
$OBSLTYPE
280
     0
  9
$INTERSECTIONDISPLAY
280
     0
  9
$INTERSECTIONCOLOR
 70
   257
  9
$DIMASSOC
280
     2
  9
$PROJECTNAME
  1

  0
ENDSEC
  0
SECTION
  2
CLASSES
  0
CLASS
  1
ACDBDICTIONARYWDFLT
  2
AcDbDictionaryWithDefault
  3
ObjectDBX Classes
 90
        0
 91
        4
280
     0
281
     0
  0
CLASS
  1
VISUALSTYLE
  2
AcDbVisualStyle
  3
ObjectDBX Classes
 90
     4095
 91
        4
280
     0
281
     0
  0
ENDSEC
  0
SECTION
  2
TABLES
  0
TABLE
  2
VPORT
  5
8
330
0
100
AcDbSymbolTable
 70
     1
  0
VPORT
  5
29
330
8
100
AcDbSymbolTableRecord
100
AcDbViewportTableRecord
  2
*Active
 70
     0
 10
0.0
 20
0.0
 11
1.0
 21
1.0
 12
80.25
 22
106.4409457059851
 13
0.0
 23
0.0
 14
0.5
 24
0.5
 15
0.5
 25
0.5
 16
0.0
 26
0.0
 36
1.0
 17
0.0
 27
0.0
 37
0.0
 40
113.3818914119703
 41
0.8863849310366128
 42
50.0
 43
0.0
 44
0.0
 50
0.0
 51
0.0
 71
     0
 72
  1000
 73
     1
 74
     3
 75
     0
 76
     0
 77
     0
 78
     0
281
     0
 65
     1
110
0.0
120
0.0
130
0.0
111
1.0
121
0.0
131
0.0
112
0.0
122
1.0
132
0.0
 79
     0
146
0.0
  0
ENDTAB
  0
TABLE
  2
LTYPE
  5
5
330
0
100
AcDbSymbolTable
 70
     1
  0
LTYPE
  5
14
330
5
100
AcDbSymbolTableRecord
100
AcDbLinetypeTableRecord
  2
ByBlock
 70
     0
  3

 72
    65
 73
     0
 40
0.0
  0
LTYPE
  5
15
330
5
100
AcDbSymbolTableRecord
100
AcDbLinetypeTableRecord
  2
ByLayer
 70
     0
  3

 72
    65
 73
     0
 40
0.0
  0
LTYPE
  5
16
330
5
100
AcDbSymbolTableRecord
100
AcDbLinetypeTableRecord
  2
Continuous
 70
     0
  3
Solid line
 72
    65
 73
     0
 40
0.0
  0
ENDTAB
  0
TABLE
  2
LAYER
  5
2
330
0
100
AcDbSymbolTable
 70
     1
  0
LAYER
  5
10
330
2
100
AcDbSymbolTableRecord
100
AcDbLayerTableRecord
  2
0
 70
     0
 62
     7
  6
Continuous
370
    -3
390
F
  0
ENDTAB
  0
TABLE
  2
STYLE
  5
3
330
0
100
AcDbSymbolTable
 70
     1
  0
STYLE
  5
11
330
3
100
AcDbSymbolTableRecord
100
AcDbTextStyleTableRecord
  2
Standard
 70
     0
 40
0.0
 41
1.0
 50
0.0
 71
     0
 42
0.2
  3
txt
  4

  0
ENDTAB
  0
TABLE
  2
VIEW
  5
6
330
0
100
AcDbSymbolTable
 70
     0
  0
ENDTAB
  0
TABLE
  2
UCS
  5
7
330
0
100
AcDbSymbolTable
 70
     0
  0
ENDTAB
  0
TABLE
  2
APPID
  5
9
330
0
100
AcDbSymbolTable
 70
     1
  0
APPID
  5
12
330
9
100
AcDbSymbolTableRecord
100
AcDbRegAppTableRecord
  2
ACAD
 70
     0
  0
ENDTAB
  0
TABLE
  2
DIMSTYLE
  5
A
330
0
100
AcDbSymbolTable
 70
     1
100
AcDbDimStyleTable
  0
DIMSTYLE
105
27
330
A
100
AcDbSymbolTableRecord
100
AcDbDimStyleTableRecord
  2
Standard
 70
     0
340
11
  0
ENDTAB
  0
TABLE
  2
BLOCK_RECORD
  5
1
330
0
100
AcDbSymbolTable
 70
     1
  0
BLOCK_RECORD
  5
1F
330
1
100
AcDbSymbolTableRecord
100
AcDbBlockTableRecord
  2
*Model_Space
340
22
  0
BLOCK_RECORD
  5
1B
330
1
100
AcDbSymbolTableRecord
100
AcDbBlockTableRecord
  2
*Paper_Space
340
1E
  0
BLOCK_RECORD
  5
23
330
1
100
AcDbSymbolTableRecord
100
AcDbBlockTableRecord
  2
*Paper_Space0
340
26
  0
ENDTAB
  0
ENDSEC
  0
SECTION
  2
BLOCKS
  0
BLOCK
  5
20
330
1F
100
AcDbEntity
  8
0
100
AcDbBlockBegin
  2
*Model_Space
 70
     0
 10
0.0
 20
0.0
 30
0.0
  3
*Model_Space
  1

  0
ENDBLK
  5
21
330
1F
100
AcDbEntity
  8
0
100
AcDbBlockEnd
  0
BLOCK
  5
1C
330
1B
100
AcDbEntity
 67
     1
  8
0
100
AcDbBlockBegin
  2
*Paper_Space
 70
     0
 10
0.0
 20
0.0
 30
0.0
  3
*Paper_Space
  1

  0
ENDBLK
  5
1D
330
1B
100
AcDbEntity
 67
     1
  8
0
100
AcDbBlockEnd
  0
BLOCK
  5
24
330
23
100
AcDbEntity
  8
0
100
AcDbBlockBegin
  2
*Paper_Space0
 70
     0
 10
0.0
 20
0.0
 30
0.0
  3
*Paper_Space0
  1

  0
ENDBLK
  5
25
330
23
100
AcDbEntity
  8
0
100
AcDbBlockEnd
  0
ENDSEC
  0
SECTION
  2
ENTITIES
  0
LWPOLYLINE
  5
0
  8
0
100
AcDbEntity
100
AcDbPolyline
 70
0
 90
11
 10
30.3155969
 20
59.9682205
 10
30.3155509
 20
59.9681284
 10
30.3153438
 20
59.9681543
 10
30.3153256
 20
59.9681179
 10
30.3148413
 20
59.9681785
 10
30.3150873
 20
59.968671
 10
30.3153101
 20
59.9686431
 10
30.3152608
 20
59.9685443
 10
30.31521
 20
59.9685506
 10
30.3150776
 20
59.9682855
 10
30.3155969
 20
59.9682205
  0
LWPOLYLINE
  5
20000
  8
0
100
AcDbEntity
100
AcDbPolyline
 70
0
 90
11
 10
30.3155969
 20
59.9682205
 10
30.3155509
 20
59.9681284
 10
30.3153438
 20
59.9681543
 10
30.3153256
 20
59.9681179
 10
30.3148413
 20
59.9681785
 10
30.3150873
 20
59.968671
 10
30.3153101
 20
59.9686431
 10
30.3152608
 20
59.9685443
 10
30.31521
 20
59.9685506
 10
30.3150776
 20
59.9682855
 10
30.3155969
 20
59.9682205
  0
LWPOLYLINE
  5
20001
  8
0
100
AcDbEntity
100
AcDbPolyline
 70
0
 90
11
 10
30.3155969
 20
59.9682205
 10
30.3155509
 20
59.9681284
 10
30.3153438
 20
59.9681543
 10
30.3153256
 20
59.9681179
 10
30.3148413
 20
59.9681785
 10
30.3150873
 20
59.968671
 10
30.3153101
 20
59.9686431
 10
30.3152608
 20
59.9685443
 10
30.31521
 20
59.9685506
 10
30.3150776
 20
59.9682855
 10
30.3155969
 20
59.9682205
  0
LWPOLYLINE
  5
20002
  8
0
100
AcDbEntity
100
AcDbPolyline
 70
0
 90
11
 10
30.3155969
 20
59.9682205
 10
30.3155509
 20
59.9681284
 10
30.3153438
 20
59.9681543
 10
30.3153256
 20
59.9681179
 10
30.3148413
 20
59.9681785
 10
30.3150873
 20
59.968671
 10
30.3153101
 20
59.9686431
 10
30.3152608
 20
59.9685443
 10
30.31521
 20
59.9685506
 10
30.3150776
 20
59.9682855
 10
30.3155969
 20
59.9682205
  0
LWPOLYLINE
  5
4
  8
0
100
AcDbEntity
100
AcDbPolyline
 70
0
 90
9
 10
30.3172167068922
 20
59.9680933021065
 10
30.3172075479167
 20
59.9680978860103
 10
30.3168961427491
 20
59.9680795503912
 10
30.3169465171145
 20
59.9682216511738
 10
30.3170152094308
 20
59.9682216511738
 10
30.3170839017472
 20
59.9682491544807
 10
30.3173174556229
 20
59.9681460169622
 10
30.3172075479167
 20
59.9680978860103
 10
30.3172075479167
 20
59.9680978860103
  0
LWPOLYLINE
  5
20003
  8
0
100
AcDbEntity
100
AcDbPolyline
 70
0
 90
7
 10
30.3173174556229
 20
59.9681460169622
 10
30.3173174556229
 20
59.9681460169622
 10
30.317505214621
 20
59.9682193592306
 10
30.3173998864025
 20
59.9682720738856
 10
30.31722128638
 20
59.9681941478441
 10
30.3173174556229
 20
59.9681460169622
 10
30.3173174556229
 20
59.9681460169622
  0
LWPOLYLINE
  5
20004
  8
0
100
AcDbEntity
100
AcDbPolyline
 70
0
 90
7
 10
30.3176517582293
 20
59.9682835335822
 10
30.3174044658903
 20
59.9684050061216
 10
30.3176471787415
 20
59.9685173105258
 10
30.3179265274948
 20
59.9684577204812
 10
30.3179814813479
 20
59.9684164657721
 10
30.317656337717
 20
59.9682881174597
 10
30.317656337717
 20
59.9682881174597
  0
LWPOLYLINE
  5
20005
  8
0
100
AcDbEntity
100
AcDbPolyline
 70
0
 90
5
 10
30.317505214621
 20
59.9682193592306
 10
30.3176517582293
 20
59.9682835335822
 10
30.3174044658903
 20
59.9684050061216
 10
30.3172853992086
 20
59.9683477078094
 10
30.317505214621
 20
59.9682193592306
  0
LWPOLYLINE
  5
20006
  8
0
100
AcDbEntity
100
AcDbPolyline
 70
0
 90
10
 10
30.317921948007
 20
59.9684611583628
 10
30.317921948007
 20
59.9684611583628
 10
30.317921948007
 20
59.9684611583628
 10
30.317921948007
 20
59.9684611583628
 10
30.317921948007
 20
59.9684611583628
 10
30.3176425992537
 20
59.9685207484075
 10
30.3176425992537
 20
59.9685207484075
 10
30.3179471351897
 20
59.9685092887996
 10
30.317921948007
 20
59.9684611583628
 10
30.317921948007
 20
59.9684611583628
  0
LWPOLYLINE
  5
20007
  8
0
100
AcDbEntity
100
AcDbPolyline
 70
0
 90
7
 10
30.3168961427491
 20
59.9680795503912
 10
30.3172075479167
 20
59.9680978860103
 10
30.3173174556229
 20
59.9681460169622
 10
30.3170839017472
 20
59.9682491544807
 10
30.3170152094308
 20
59.9682216511738
 10
30.3169465171145
 20
59.9682216511738
 10
30.3168961427491
 20
59.9680795503912
  0
LWPOLYLINE
  5
20008
  8
0
100
AcDbEntity
100
AcDbPolyline
 70
0
 90
7
 10
30.3170839017472
 20
59.9682491544807
 10
30.3173174556229
 20
59.9681460169622
 10
30.3179814813479
 20
59.9684164657721
 10
30.3179265274948
 20
59.9684577204812
 10
30.3176471787415
 20
59.9685173105258
 10
30.3172853992086
 20
59.9683477078094
 10
30.3172853992086
 20
59.9683477078094
  0
LWPOLYLINE
  5
B
  8
0
100
AcDbEntity
100
AcDbPolyline
 70
0
 90
6
 10
30.3168961427491
 20
59.9680795503912
 10
30.3172075479167
 20
59.9680978860103
 10
30.3170152094308
 20
59.9682216511738
 10
30.3169465171145
 20
59.9682216511738
 10
30.3168961427491
 20
59.9680795503912
 10
30.3168961427491
 20
59.9680795503912
  0
LWPOLYLINE
  5
20009
  8
0
100
AcDbEntity
100
AcDbPolyline
 70
0
 90
6
 10
30.3169465171145
 20
59.9682216511738
 10
30.3168961427491
 20
59.9680795503912
 10
30.3172075479167
 20
59.9680978860103
 10
30.3170152094308
 20
59.9682216511738
 10
30.3169465171145
 20
59.9682216511738
 10
30.3169465171145
 20
59.9682216511738
  0
LWPOLYLINE
  5
2000A
  8
0
100
AcDbEntity
100
AcDbPolyline
 70
0
 90
6
 10
30.3170152094308
 20
59.9682216511738
 10
30.3172075479167
 20
59.9680978860103
 10
30.3179814813479
 20
59.9684164657721
 10
30.3179265274948
 20
59.9684577204812
 10
30.3176471787415
 20
59.9685173105258
 10
30.3170152094308
 20
59.9682216511738
  0
LWPOLYLINE
  5
2000B
  8
0
100
AcDbEntity
100
AcDbPolyline
 70
0
 90
6
 10
30.3170152094308
 20
59.9682216511738
 10
30.3172167068922
 20
59.9680933021065
 10
30.3179814813479
 20
59.9684164657721
 10
30.3179265274948
 20
59.9684577204812
 10
30.3176471787415
 20
59.9685173105258
 10
30.3170152094308
 20
59.9682216511738
  0
LWPOLYLINE
  5
2000C
  8
0
100
AcDbEntity
100
AcDbPolyline
 70
0
 90
8
 10
30.3170152094308
 20
59.9682216511738
 10
30.3172075479167
 20
59.9680978860103
 10
30.3177479274722
 20
59.9683270803928
 10
30.3176151223272
 20
59.9683866706725
 10
30.3175418505231
 20
59.9683477078094
 10
30.3174044658903
 20
59.9684050061216
 10
30.3170152094308
 20
59.9682216511738
 10
30.3170152094308
 20
59.9682216511738
  0
LWPOLYLINE
  5
2000D
  8
0
100
AcDbEntity
100
AcDbPolyline
 70
0
 90
6
 10
30.3177479274722
 20
59.9683270803928
 10
30.3179814813479
 20
59.9684164657721
 10
30.3179265274948
 20
59.9684577204812
 10
30.3176471787415
 20
59.9685173105258
 10
30.317505214621
 20
59.9684577204812
 10
30.3177479274722
 20
59.9683270803928
  0
LWPOLYLINE
  5
2000E
  8
0
100
AcDbEntity
100
AcDbPolyline
 70
0
 90
6
 10
30.3176471787415
 20
59.9685173105258
 10
30.317694118491
 20
59.9686032575167
 10
30.3179803364759
 20
59.9685688787471
 10
30.317921948007
 20
59.9684611583628
 10
30.3176425992537
 20
59.9685207484074
 10
30.3176425992537
 20
59.9685207484074
  0
LWPOLYLINE
  5
2000F
  8
0
100
AcDbEntity
100
AcDbPolyline
 70
0
 90
6
 10
30.3160981658978
 20
59.9680394406315
 10
30.3161348018378
 20
59.9681975853678
 10
30.3164187303727
 20
59.9681952934205
 10
30.3163866739253
 20
59.9680554843348
 10
30.3161027453903
 20
59.9680371486733
 10
30.3161027453903
 20
59.9680371486733
  0
LWPOLYLINE
  5
13
  8
0
100
AcDbEntity
100
AcDbPolyline
 70
0
 90
7
 10
30.3163866739252
 20
59.9680554843348
 10
30.3168961427491
 20
59.9680795503912
 10
30.3169465171145
 20
59.9682216511738
 10
30.3168125667276
 20
59.9681998773149
 10
30.3164187303727
 20
59.9681952934205
 10
30.3163866739252
 20
59.9680554843348
 10
30.3163866739252
 20
59.9680554843348
  0
LWPOLYLINE
  5
20010
  8
0
100
AcDbEntity
100
AcDbPolyline
 70
0
 90
8
 10
30.3161668582853
 20
59.9683007228325
 10
30.3162630276278
 20
59.9686605554722
 10
30.3170094849051
 20
59.9685597110502
 10
30.3169820079501
 20
59.9684176115709
 10
30.3163088225528
 20
59.9685024129464
 10
30.3162309711803
 20
59.9683007228325
 10
30.3161714377778
 20
59.9683030147725
 10
30.3161714377778
 20
59.9683030147725
  0
LWPOLYLINE
  5
20011
  8
0
100
AcDbEntity
100
AcDbPolyline
 70
0
 90
8
 10
30.3161668582853
 20
59.9683007228325
 10
30.3162630276278
 20
59.9686605554722
 10
30.3170094849051
 20
59.9685597110502
 10
30.3169820079501
 20
59.9684176115709
 10
30.3163088225528
 20
59.9685024129464
 10
30.3162309711803
 20
59.9683007228325
 10
30.3161714377778
 20
59.9683030147725
 10
30.3161714377778
 20
59.9683030147725
  0
LWPOLYLINE
  5
20012
  8
0
100
AcDbEntity
100
AcDbPolyline
 70
0
 90
8
 10
30.3161668582853
 20
59.9683007228325
 10
30.3162630276278
 20
59.9686605554722
 10
30.3170094849051
 20
59.9685597110502
 10
30.3169820079501
 20
59.9684176115709
 10
30.3163088225528
 20
59.9685024129464
 10
30.3162309711803
 20
59.9683007228325
 10
30.3161714377778
 20
59.9683030147725
 10
30.3161714377778
 20
59.9683030147725
  0
LWPOLYLINE
  5
20013
  8
0
100
AcDbEntity
100
AcDbPolyline
 70
0
 90
8
 10
30.3161668582853
 20
59.9683007228325
 10
30.3162630276278
 20
59.9686605554722
 10
30.3170094849051
 20
59.9685597110502
 10
30.3169820079501
 20
59.9684176115709
 10
30.3163088225528
 20
59.9685024129464
 10
30.3162309711803
 20
59.9683007228325
 10
30.3161714377778
 20
59.9683030147725
 10
30.3161714377778
 20
59.9683030147725
  0
LWPOLYLINE
  5
20014
  8
0
100
AcDbEntity
100
AcDbPolyline
 70
0
 90
8
 10
30.3169820079501
 20
59.9684176115709
 10
30.3169465171145
 20
59.9682216511738
 10
30.3168125667276
 20
59.9681998773149
 10
30.3167072384002
 20
59.9682296726134
 10
30.3167118178927
 20
59.968335101916
 10
30.3167667718026
 20
59.9684107357741
 10
30.3169820079501
 20
59.9684176115709
 10
30.3169820079501
 20
59.9684176115709
  0
LWPOLYLINE
  5
20015
  8
0
100
AcDbEntity
100
AcDbPolyline
 70
0
 90
8
 10
30.3169820079501
 20
59.9684176115709
 10
30.3169465171145
 20
59.9682216511738
 10
30.3168125667276
 20
59.9681998773149
 10
30.3167072384002
 20
59.9682296726134
 10
30.3167118178927
 20
59.968335101916
 10
30.3167667718026
 20
59.9684107357741
 10
30.3169820079501
 20
59.9684176115709
 10
30.3169820079501
 20
59.9684176115709
  0
LWPOLYLINE
  5
20016
  8
0
100
AcDbEntity
100
AcDbPolyline
 70
0
 90
8
 10
30.3169820079501
 20
59.9684176115709
 10
30.3169465171145
 20
59.9682216511738
 10
30.3168125667276
 20
59.9681998773149
 10
30.3167072384002
 20
59.9682296726134
 10
30.3167118178927
 20
59.968335101916
 10
30.3167667718026
 20
59.9684107357741
 10
30.3169820079501
 20
59.9684176115709
 10
30.3169820079501
 20
59.9684176115709
  0
LWPOLYLINE
  5
20017
  8
0
100
AcDbEntity
100
AcDbPolyline
 70
0
 90
8
 10
30.3169820079501
 20
59.9684176115709
 10
30.3169465171145
 20
59.9682216511738
 10
30.3168125667276
 20
59.9681998773149
 10
30.3167072384002
 20
59.9682296726134
 10
30.3167118178927
 20
59.968335101916
 10
30.3167667718026
 20
59.9684107357741
 10
30.3169820079501
 20
59.9684176115709
 10
30.3169820079501
 20
59.9684176115709
  0
LWPOLYLINE
  5
20018
  8
0
100
AcDbEntity
100
AcDbPolyline
 70
0
 90
6
 10
30.3161348018378
 20
59.9681975853678
 10
30.3168125667276
 20
59.9681998773149
 10
30.3169465171145
 20
59.9682216511738
 10
30.3168961427491
 20
59.9680795503912
 10
30.3161027453903
 20
59.9680371486733
 10
30.3161348018378
 20
59.9681975853678
  0
LWPOLYLINE
  5
20019
  8
0
100
AcDbEntity
100
AcDbPolyline
 70
0
 90
9
 10
30.3166765000015
 20
59.9707523
 10
30.3177415
 20
59.9707208
 10
30.3177204
 20
59.9704873
 10
30.3176897
 20
59.9703142
 10
30.3172183825758
 20
59.9703273220888
 10
30.3172294
 20
59.970555
 10
30.3166527
 20
59.9705751
 10
30.3166765
 20
59.9707523
 10
30.3166765
 20
59.9707523
  0
LWPOLYLINE
  5
2001A
  8
0
100
AcDbEntity
100
AcDbPolyline
 70
0
 90
6
 10
30.3172183825509
 20
59.9703273220676
 10
30.3172109999751
 20
59.9700886999789
 10
30.3176660999751
 20
59.9700779999789
 10
30.3176896999751
 20
59.9703141999789
 10
30.3172183825509
 20
59.9703273220676
 10
30.3172183825509
 20
59.9703273220676
  0
LWPOLYLINE
  5
2001B
  8
0
100
AcDbEntity
100
AcDbPolyline
 70
0
 90
8
 10
30.317211
 20
59.9700887
 10
30.3176661
 20
59.970078
 10
30.3177415
 20
59.9707208
 10
30.3166765000015
 20
59.9707523
 10
30.3166527
 20
59.9705751
 10
30.3172294
 20
59.970555
 10
30.317211
 20
59.9700887
 10
30.317211
 20
59.9700887
  0
LWPOLYLINE
  5
2001C
  8
0
100
AcDbEntity
100
AcDbPolyline
 70
0
 90
8
 10
30.317211
 20
59.9700887
 10
30.3176661
 20
59.970078
 10
30.3177415
 20
59.9707208
 10
30.3166765000015
 20
59.9707523
 10
30.3166527
 20
59.9705751
 10
30.3172294
 20
59.970555
 10
30.317211
 20
59.9700887
 10
30.317211
 20
59.9700887
  0
LWPOLYLINE
  5
2001D
  8
0
100
AcDbEntity
100
AcDbPolyline
 70
0
 90
8
 10
30.317211
 20
59.9700887
 10
30.3176661
 20
59.970078
 10
30.3177415
 20
59.9707208
 10
30.3166765000015
 20
59.9707523
 10
30.3166527
 20
59.9705751
 10
30.3172294
 20
59.970555
 10
30.317211
 20
59.9700887
 10
30.317211
 20
59.9700887
  0
LWPOLYLINE
  5
2001E
  8
0
100
AcDbEntity
100
AcDbPolyline
 70
0
 90
16
 10
30.3177012
 20
59.9703854
 10
30.3176897
 20
59.9703142
 10
30.3178626
 20
59.9703142
 10
30.3179686
 20
59.9705893
 10
30.3178683
 20
59.9705922
 10
30.3178879
 20
59.9707203
 10
30.3180322
 20
59.9707221
 10
30.3180342
 20
59.9707472
 10
30.3180288
 20
59.9707977
 10
30.3177485
 20
59.9707985
 10
30.3177204
 20
59.9704873
 10
30.3177781
 20
59.9704854
 10
30.3177781
 20
59.9703969
 10
30.3177012
 20
59.9703854
 10
30.3176896999751
 20
59.9703141999789
 10
30.3177012
 20
59.9703854
  0
LWPOLYLINE
  5
2001F
  8
0
100
AcDbEntity
100
AcDbPolyline
 70
0
 90
16
 10
30.3177012
 20
59.9703854
 10
30.3176897
 20
59.9703142
 10
30.3178626
 20
59.9703142
 10
30.3179686
 20
59.9705893
 10
30.3178683
 20
59.9705922
 10
30.3178879
 20
59.9707203
 10
30.3180322
 20
59.9707221
 10
30.3180342
 20
59.9707472
 10
30.3180288
 20
59.9707977
 10
30.3177485
 20
59.9707985
 10
30.3177204
 20
59.9704873
 10
30.3177781
 20
59.9704854
 10
30.3177781
 20
59.9703969
 10
30.3177012
 20
59.9703854
 10
30.3176896999751
 20
59.9703141999789
 10
30.3177012
 20
59.9703854
  0
LWPOLYLINE
  5
20020
  8
0
100
AcDbEntity
100
AcDbPolyline
 70
0
 90
6
 10
30.3179808
 20
59.9692511
 10
30.3182711000023
 20
59.9692105000041
 10
30.3186444
 20
59.96988
 10
30.3183538
 20
59.9699201
 10
30.3179808
 20
59.9692511
 10
30.3179808
 20
59.9692511
  0
LWPOLYLINE
  5
20021
  8
0
100
AcDbEntity
100
AcDbPolyline
 70
0
 90
6
 10
30.3179808
 20
59.9692511
 10
30.3182711000023
 20
59.9692105000041
 10
30.3186444
 20
59.96988
 10
30.3183538
 20
59.9699201
 10
30.3179808
 20
59.9692511
 10
30.3179808
 20
59.9692511
  0
LWPOLYLINE
  5
20022
  8
0
100
AcDbEntity
100
AcDbPolyline
 70
0
 90
6
 10
30.3179808
 20
59.9692511
 10
30.3182711000023
 20
59.9692105000041
 10
30.3186444
 20
59.96988
 10
30.3183538
 20
59.9699201
 10
30.3179808
 20
59.9692511
 10
30.3179808
 20
59.9692511
  0
LWPOLYLINE
  5
20023
  8
0
100
AcDbEntity
100
AcDbPolyline
 70
0
 90
6
 10
30.3179808
 20
59.9692511
 10
30.3182711000023
 20
59.9692105000041
 10
30.3186444
 20
59.96988
 10
30.3183538
 20
59.9699201
 10
30.3179808
 20
59.9692511
 10
30.3179808
 20
59.9692511
  0
LWPOLYLINE
  5
28
  8
0
100
AcDbEntity
100
AcDbPolyline
 70
0
 90
6
 10
30.3175483
 20
59.9697997
 10
30.3172453
 20
59.9692905
 10
30.3176015
 20
59.9692374
 10
30.3179045
 20
59.9697466
 10
30.3175483
 20
59.9697997
 10
30.3175483
 20
59.9697997
  0
LWPOLYLINE
  5
20024
  8
0
100
AcDbEntity
100
AcDbPolyline
 70
0
 90
6
 10
30.3175483
 20
59.9697997
 10
30.3172453
 20
59.9692905
 10
30.3176015
 20
59.9692374
 10
30.3179045
 20
59.9697466
 10
30.3175483
 20
59.9697997
 10
30.3175483
 20
59.9697997
  0
LWPOLYLINE
  5
20025
  8
0
100
AcDbEntity
100
AcDbPolyline
 70
0
 90
6
 10
30.3175483
 20
59.9697997
 10
30.3172453
 20
59.9692905
 10
30.3176015
 20
59.9692374
 10
30.3179045
 20
59.9697466
 10
30.3175483
 20
59.9697997
 10
30.3175483
 20
59.9697997
  0
LWPOLYLINE
  5
20026
  8
0
100
AcDbEntity
100
AcDbPolyline
 70
0
 90
6
 10
30.3175483
 20
59.9697997
 10
30.3172453
 20
59.9692905
 10
30.3176015
 20
59.9692374
 10
30.3179045
 20
59.9697466
 10
30.3175483
 20
59.9697997
 10
30.3175483
 20
59.9697997
  0
LWPOLYLINE
  5
20027
  8
0
100
AcDbEntity
100
AcDbPolyline
 70
0
 90
12
 10
30.3162863
 20
59.9696482
 10
30.3167437
 20
59.9695847
 10
30.3168705
 20
59.9698002
 10
30.3168167
 20
59.969806
 10
30.3168705
 20
59.9698964
 10
30.3169627
 20
59.9698867
 10
30.3170704
 20
59.9700906
 10
30.316932
 20
59.9701099
 10
30.3170358
 20
59.9703003
 10
30.3166937
 20
59.9703503
 10
30.3162863
 20
59.9696482
 10
30.3162863
 20
59.9696482
  0
LWPOLYLINE
  5
20028
  8
0
100
AcDbEntity
100
AcDbPolyline
 70
0
 90
6
 10
30.3163391
 20
59.9703977
 10
30.316299
 20
59.9702892
 10
30.3165204
 20
59.9702673
 10
30.3165659
 20
59.9703779
 10
30.3163391
 20
59.9703977
 10
30.3163391
 20
59.9703977
  0
LWPOLYLINE
  5
20029
  8
0
100
AcDbEntity
100
AcDbPolyline
 70
0
 90
6
 10
30.3162379
 20
59.969786
 10
30.3163249
 20
59.9699882
 10
30.3161733
 20
59.9700045
 10
30.3160903
 20
59.9698029
 10
30.3162379
 20
59.969786
 10
30.3162379
 20
59.969786
  0
LWPOLYLINE
  5
2002A
  8
0
100
AcDbEntity
100
AcDbPolyline
 70
0
 90
6
 10
30.3161733
 20
59.9700045
 10
30.3163942
 20
59.9699807
 10
30.3165204
 20
59.9702673
 10
30.316299
 20
59.9702892
 10
30.3161733
 20
59.9700045
 10
30.3161733
 20
59.9700045
  0
LWPOLYLINE
  5
2002B
  8
0
100
AcDbEntity
100
AcDbPolyline
 70
0
 90
6
 10
30.3161733
 20
59.9700045
 10
30.3163942
 20
59.9699807
 10
30.3165204
 20
59.9702673
 10
30.316299
 20
59.9702892
 10
30.3161733
 20
59.9700045
 10
30.3161733
 20
59.9700045
  0
LWPOLYLINE
  5
2002C
  8
0
100
AcDbEntity
100
AcDbPolyline
 70
0
 90
6
 10
30.3160105
 20
59.9697869
 10
30.3160542016335
 20
59.9699084330166
 10
30.3157051635762
 20
59.969939450548
 10
30.3156656
 20
59.9698173
 10
30.3160105
 20
59.9697869
 10
30.3160105
 20
59.9697869
  0
LWPOLYLINE
  5
2002D
  8
0
100
AcDbEntity
100
AcDbPolyline
 70
0
 90
6
 10
30.3160542016335
 20
59.9699084330166
 10
30.3161614
 20
59.9702036
 10
30.3158071022612
 20
59.9702332994048
 10
30.3157051635762
 20
59.969939450548
 10
30.3160542016335
 20
59.9699084330166
 10
30.3160542016335
 20
59.9699084330166
  0
LWPOLYLINE
  5
2002E
  8
0
100
AcDbEntity
100
AcDbPolyline
 70
0
 90
6
 10
30.3160542016335
 20
59.9699084330166
 10
30.3161614
 20
59.9702036
 10
30.3158071022612
 20
59.9702332994048
 10
30.3157051635762
 20
59.969939450548
 10
30.3160542016335
 20
59.9699084330166
 10
30.3160542016335
 20
59.9699084330166
  0
LWPOLYLINE
  5
2002F
  8
0
100
AcDbEntity
100
AcDbPolyline
 70
0
 90
6
 10
30.3158071022611
 20
59.9702332994048
 10
30.3158801
 20
59.9704593
 10
30.316284
 20
59.9704239
 10
30.3162007
 20
59.9701997
 10
30.3158071022611
 20
59.9702332994048
 10
30.3158071022611
 20
59.9702332994048
  0
LWPOLYLINE
  5
20030
  8
0
100
AcDbEntity
100
AcDbPolyline
 70
0
 90
6
 10
30.3158071022611
 20
59.9702332994048
 10
30.3158801
 20
59.9704593
 10
30.316284
 20
59.9704239
 10
30.3162007
 20
59.9701997
 10
30.3158071022611
 20
59.9702332994048
 10
30.3158071022611
 20
59.9702332994048
  0
LWPOLYLINE
  5
20031
  8
0
100
AcDbEntity
100
AcDbPolyline
 70
0
 90
6
 10
30.3158071022611
 20
59.9702332994048
 10
30.3158801
 20
59.9704593
 10
30.316284
 20
59.9704239
 10
30.3162007
 20
59.9701997
 10
30.3158071022611
 20
59.9702332994048
 10
30.3158071022611
 20
59.9702332994048
  0
LWPOLYLINE
  5
20032
  8
0
100
AcDbEntity
100
AcDbPolyline
 70
0
 90
14
 10
30.3154112
 20
59.9705516
 10
30.3155265
 20
59.970542
 10
30.3155418
 20
59.9705824
 10
30.3157033
 20
59.970567
 10
30.3156917
 20
59.9705208
 10
30.3157878
 20
59.9705112
 10
30.3155418
 20
59.969886
 10
30.3151998
 20
59.9699187
 10
30.3152997
 20
59.9701919
 10
30.3152497
 20
59.9701977
 10
30.3152689
 20
59.9702804
 10
30.3153112
 20
59.9702765
 10
30.3154112
 20
59.9705516
 10
30.3154112
 20
59.9705516
  0
LWPOLYLINE
  5
20033
  8
0
100
AcDbEntity
100
AcDbPolyline
 70
0
 90
14
 10
30.3154112
 20
59.9705516
 10
30.3155265
 20
59.970542
 10
30.3155418
 20
59.9705824
 10
30.3157033
 20
59.970567
 10
30.3156917
 20
59.9705208
 10
30.3157878
 20
59.9705112
 10
30.3155418
 20
59.969886
 10
30.3151998
 20
59.9699187
 10
30.3152997
 20
59.9701919
 10
30.3152497
 20
59.9701977
 10
30.3152689
 20
59.9702804
 10
30.3153112
 20
59.9702765
 10
30.3154112
 20
59.9705516
 10
30.3154112
 20
59.9705516
  0
LWPOLYLINE
  5
20034
  8
0
100
AcDbEntity
100
AcDbPolyline
 70
0
 90
14
 10
30.3154112
 20
59.9705516
 10
30.3155265
 20
59.970542
 10
30.3155418
 20
59.9705824
 10
30.3157033
 20
59.970567
 10
30.3156917
 20
59.9705208
 10
30.3157878
 20
59.9705112
 10
30.3155418
 20
59.969886
 10
30.3151998
 20
59.9699187
 10
30.3152997
 20
59.9701919
 10
30.3152497
 20
59.9701977
 10
30.3152689
 20
59.9702804
 10
30.3153112
 20
59.9702765
 10
30.3154112
 20
59.9705516
 10
30.3154112
 20
59.9705516
  0
LWPOLYLINE
  5
20035
  8
0
100
AcDbEntity
100
AcDbPolyline
 70
0
 90
14
 10
30.3144614
 20
59.9699199
 10
30.3146798
 20
59.969893
 10
30.3146894
 20
59.969928
 10
30.3150254
 20
59.9698973
 10
30.3152039
 20
59.9705539
 10
30.3150499
 20
59.9705644
 10
30.3150561
 20
59.9705998
 10
30.31497
 20
59.970606
 10
30.3149608
 20
59.9705706
 10
30.3147455
 20
59.9705844
 10
30.3147848
 20
59.9707293
 10
30.3146499
 20
59.9707339
 10
30.3144614
 20
59.9699199
 10
30.3144614
 20
59.9699199
  0
LWPOLYLINE
  5
3B
  8
0
100
AcDbEntity
100
AcDbPolyline
 70
0
 90
14
 10
30.3144614
 20
59.9699199
 10
30.3146798
 20
59.969893
 10
30.3146894
 20
59.969928
 10
30.3150254
 20
59.9698973
 10
30.3152039
 20
59.9705539
 10
30.3150499
 20
59.9705644
 10
30.3150561
 20
59.9705998
 10
30.31497
 20
59.970606
 10
30.3149608
 20
59.9705706
 10
30.3147455
 20
59.9705844
 10
30.3147848
 20
59.9707293
 10
30.3146499
 20
59.9707339
 10
30.3144614
 20
59.9699199
 10
30.3144614
 20
59.9699199
  0
LWPOLYLINE
  5
3C
  8
0
100
AcDbEntity
100
AcDbPolyline
 70
0
 90
14
 10
30.3144614
 20
59.9699199
 10
30.3146798
 20
59.969893
 10
30.3146894
 20
59.969928
 10
30.3150254
 20
59.9698973
 10
30.3152039
 20
59.9705539
 10
30.3150499
 20
59.9705644
 10
30.3150561
 20
59.9705998
 10
30.31497
 20
59.970606
 10
30.3149608
 20
59.9705706
 10
30.3147455
 20
59.9705844
 10
30.3147848
 20
59.9707293
 10
30.3146499
 20
59.9707339
 10
30.3144614
 20
59.9699199
 10
30.3144614
 20
59.9699199
  0
LWPOLYLINE
  5
3D
  8
0
100
AcDbEntity
100
AcDbPolyline
 70
0
 90
14
 10
30.3144614
 20
59.9699195972783
 10
30.3146798
 20
59.9698926972783
 10
30.3146894
 20
59.9699276972783
 10
30.3150254
 20
59.9698969972783
 10
30.3152039
 20
59.9705535972783
 10
30.3150499
 20
59.9705640972783
 10
30.3150561
 20
59.9705994972783
 10
30.31497
 20
59.9706056972783
 10
30.3149608
 20
59.9705702972783
 10
30.3147455
 20
59.9705840972783
 10
30.3147848
 20
59.9707289972783
 10
30.3146499
 20
59.9707335972783
 10
30.3144614
 20
59.9699195972783
 10
30.3144614
 20
59.9699195972783
  0
LWPOLYLINE
  5
3E
  8
0
100
AcDbEntity
100
AcDbPolyline
 70
0
 90
14
 10
30.3144614
 20
59.9699198987577
 10
30.3146798
 20
59.9698929987577
 10
30.3146894
 20
59.9699279987577
 10
30.3150254
 20
59.9698972987577
 10
30.3152039
 20
59.9705538987577
 10
30.3150499
 20
59.9705643987577
 10
30.3150561
 20
59.9705997987577
 10
30.31497
 20
59.9706059987576
 10
30.3149608
 20
59.9705705987576
 10
30.3147455
 20
59.9705843987577
 10
30.3147848
 20
59.9707292987576
 10
30.3146499
 20
59.9707338987577
 10
30.3144614
 20
59.9699198987577
 10
30.3144614
 20
59.9699198987577
  0
LWPOLYLINE
  5
3F
  8
0
100
AcDbEntity
100
AcDbPolyline
 70
0
 90
6
 10
30.3173031
 20
59.9687778
 10
30.3173228
 20
59.9688344
 10
30.3171334
 20
59.9688517
 10
30.3171105667411
 20
59.9688019477572
 10
30.3173031
 20
59.9687778
 10
30.3173031
 20
59.9687778
  0
LWPOLYLINE
  5
40
  8
0
100
AcDbEntity
100
AcDbPolyline
 70
0
 90
6
 10
30.3173031
 20
59.9687778
 10
30.3173228
 20
59.9688344
 10
30.3171334
 20
59.9688517
 10
30.3171105667411
 20
59.9688019477572
 10
30.3173031
 20
59.9687778
 10
30.3173031
 20
59.9687778
  0
LWPOLYLINE
  5
41
  8
0
100
AcDbEntity
100
AcDbPolyline
 70
0
 90
6
 10
30.3173031
 20
59.9687778
 10
30.3173228
 20
59.9688344
 10
30.3171334
 20
59.9688517
 10
30.3171105667411
 20
59.9688019477572
 10
30.3173031
 20
59.9687778
 10
30.3173031
 20
59.9687778
  0
LWPOLYLINE
  5
20036
  8
0
100
AcDbEntity
100
AcDbPolyline
 70
0
 90
6
 10
30.3173031
 20
59.9687778
 10
30.3173228
 20
59.9688344
 10
30.3171334
 20
59.9688517
 10
30.3171105667411
 20
59.9688019477572
 10
30.3173031
 20
59.9687778
 10
30.3173031
 20
59.9687778
  0
LWPOLYLINE
  5
20037
  8
0
100
AcDbEntity
100
AcDbPolyline
 70
0
 90
6
 10
30.3181464
 20
59.9685506
 10
30.3181940985083
 20
59.9686550555682
 10
30.3179135632473
 20
59.9686860742735
 10
30.3178711567543
 20
59.9685881203684
 10
30.3181464
 20
59.9685506
 10
30.3181464
 20
59.9685506
  0
LWPOLYLINE
  5
20038
  8
0
100
AcDbEntity
100
AcDbPolyline
 70
0
 90
6
 10
30.3171105667411
 20
59.9688019477572
 10
30.3170571
 20
59.9686855
 10
30.3178676908391
 20
59.9685839369139
 10
30.3179217183421
 20
59.968706889441
 10
30.3171105667411
 20
59.9688019477572
 10
30.3171105667411
 20
59.9688019477572
  0
LWPOLYLINE
  5
45
  8
0
100
AcDbEntity
100
AcDbPolyline
 70
0
 90
12
 10
30.3175709
 20
59.9690339
 10
30.3176693
 20
59.9692185
 10
30.318053
 20
59.969168
 10
30.3180697
 20
59.9692053
 10
30.3184201
 20
59.9691653
 10
30.3181940985083
 20
59.9686550555682
 10
30.3179135632473
 20
59.9686860742735
 10
30.3179217183421
 20
59.9687068894409
 10
30.3178195
 20
59.9687203
 10
30.317962
 20
59.9689846
 10
30.3175709
 20
59.9690339
 10
30.3175709
 20
59.9690339
  0
LWPOLYLINE
  5
46
  8
0
100
AcDbEntity
100
AcDbPolyline
 70
0
 90
12
 10
30.3171105667411
 20
59.9688019477572
 10
30.3178195
 20
59.9687203
 10
30.317962
 20
59.9689846
 10
30.3175709
 20
59.9690339
 10
30.3176693
 20
59.9692185
 10
30.318053
 20
59.969168
 10
30.3180697
 20
59.9692053
 10
30.3184201
 20
59.9691653
 10
30.3181464
 20
59.9685506
 10
30.3170571
 20
59.9686855
 10
30.3171105667411
 20
59.9688019477572
 10
30.3171105667411
 20
59.9688019477572
  0
LWPOLYLINE
  5
47
  8
0
100
AcDbEntity
100
AcDbPolyline
 70
0
 90
8
 10
30.3171105667411
 20
59.9688019477572
 10
30.3178195
 20
59.9687203
 10
30.3180697
 20
59.9692053
 10
30.3184201
 20
59.9691653
 10
30.3181464
 20
59.9685506
 10
30.3170571
 20
59.9686855
 10
30.3171105667411
 20
59.9688019477572
 10
30.3171105667411
 20
59.9688019477572
  0
LWPOLYLINE
  5
48
  8
0
100
AcDbEntity
100
AcDbPolyline
 70
0
 90
8
 10
30.3171105667411
 20
59.9688019477572
 10
30.3178195
 20
59.9687203
 10
30.3180697
 20
59.9692053
 10
30.3184201
 20
59.9691653
 10
30.3181464
 20
59.9685506
 10
30.3170571
 20
59.9686855
 10
30.3171105667411
 20
59.9688019477572
 10
30.3171105667411
 20
59.9688019477572
  0
LWPOLYLINE
  5
49
  8
0
100
AcDbEntity
100
AcDbPolyline
 70
0
 90
10
 10
30.3164836
 20
59.9690692
 10
30.3166213
 20
59.969052
 10
30.3166047
 20
59.9690188
 10
30.3168636
 20
59.9689864
 10
30.3168821
 20
59.9690235
 10
30.3170379
 20
59.969004
 10
30.3169204
 20
59.9687687
 10
30.3163580824391
 20
59.9688390788418
 10
30.3164836
 20
59.9690692
 10
30.3164836
 20
59.9690692
  0
LWPOLYLINE
  5
4A
  8
0
100
AcDbEntity
100
AcDbPolyline
 70
0
 90
10
 10
30.3164836
 20
59.9690692
 10
30.3166213
 20
59.969052
 10
30.3166047
 20
59.9690188
 10
30.3168636
 20
59.9689864
 10
30.3168821
 20
59.9690235
 10
30.3170379
 20
59.969004
 10
30.3169204
 20
59.9687687
 10
30.3163580824391
 20
59.9688390788418
 10
30.3164836
 20
59.9690692
 10
30.3164836
 20
59.9690692
  0
LWPOLYLINE
  5
4B
  8
0
100
AcDbEntity
100
AcDbPolyline
 70
0
 90
10
 10
30.3164836
 20
59.9690692
 10
30.3166213
 20
59.969052
 10
30.3166047
 20
59.9690188
 10
30.3168636
 20
59.9689864
 10
30.3168821
 20
59.9690235
 10
30.3170379
 20
59.969004
 10
30.3169204
 20
59.9687687
 10
30.3163580824391
 20
59.9688390788418
 10
30.3164836
 20
59.9690692
 10
30.3164836
 20
59.9690692
  0
LWPOLYLINE
  5
4C
  8
0
100
AcDbEntity
100
AcDbPolyline
 70
0
 90
10
 10
30.3164836
 20
59.9690692
 10
30.3166213
 20
59.969052
 10
30.3166047
 20
59.9690188
 10
30.3168636
 20
59.9689864
 10
30.3168821
 20
59.9690235
 10
30.3170379
 20
59.969004
 10
30.3169204
 20
59.9687687
 10
30.3163580824391
 20
59.9688390788418
 10
30.3164836
 20
59.9690692
 10
30.3164836
 20
59.9690692
  0
LWPOLYLINE
  5
4D
  8
0
100
AcDbEntity
100
AcDbPolyline
 70
0
 90
12
 10
30.3150147
 20
59.9691582
 10
30.3149427021504
 20
59.9690130999997
 10
30.3163580824391
 20
59.9688390788418
 10
30.3164836
 20
59.9690692
 10
30.3161607291431
 20
59.9691117144287
 10
30.3162781625093
 20
59.9693451670699
 10
30.3157132
 20
59.9694107
 10
30.315601
 20
59.9691861
 10
30.3155472
 20
59.9691928
 10
30.3154996
 20
59.9690975
 10
30.3150147
 20
59.9691582
 10
30.3150147
 20
59.9691582
  0
LWPOLYLINE
  5
4E
  8
0
100
AcDbEntity
100
AcDbPolyline
 70
0
 90
8
 10
30.3149427021504
 20
59.9690130999997
 10
30.3163580824391
 20
59.9688390788418
 10
30.3164836
 20
59.9690692
 10
30.3155472
 20
59.9691928
 10
30.3154996
 20
59.9690975
 10
30.3150147
 20
59.9691582
 10
30.3149427021504
 20
59.9690130999997
 10
30.3149427021504
 20
59.9690130999997
  0
LWPOLYLINE
  5
4F
  8
0
100
AcDbEntity
100
AcDbPolyline
 70
0
 90
8
 10
30.3149427021504
 20
59.9690130999997
 10
30.3163580824391
 20
59.9688390788418
 10
30.3164836
 20
59.9690692
 10
30.3155472
 20
59.9691928
 10
30.3154996
 20
59.9690975
 10
30.3150147
 20
59.9691582
 10
30.3149427021504
 20
59.9690130999997
 10
30.3149427021504
 20
59.9690130999997
  0
LWPOLYLINE
  5
50
  8
0
100
AcDbEntity
100
AcDbPolyline
 70
0
 90
8
 10
30.3149427021504
 20
59.9690130999997
 10
30.3163580824391
 20
59.9688390788418
 10
30.3164836
 20
59.9690692
 10
30.3155472
 20
59.9691928
 10
30.3154996
 20
59.9690975
 10
30.3150147
 20
59.9691582
 10
30.3149427021504
 20
59.9690130999997
 10
30.3149427021504
 20
59.9690130999997
  0
LWPOLYLINE
  5
51
  8
0
100
AcDbEntity
100
AcDbPolyline
 70
0
 90
10
 10
30.3152653
 20
59.9694848
 10
30.3153726
 20
59.9696994
 10
30.3167145
 20
59.9695315
 10
30.3164836
 20
59.9690692
 10
30.3161607291431
 20
59.9691117144287
 10
30.3162781625093
 20
59.9693451670699
 10
30.3154123
 20
59.9694483
 10
30.3154208
 20
59.9694653
 10
30.3152653
 20
59.9694848
 10
30.3152653
 20
59.9694848
  0
LWPOLYLINE
  5
52
  8
0
100
AcDbEntity
100
AcDbPolyline
 70
0
 90
10
 10
30.3152653
 20
59.9694848
 10
30.3153726
 20
59.9696994
 10
30.3167145
 20
59.9695315
 10
30.3164836
 20
59.9690692
 10
30.3161607291431
 20
59.9691117144287
 10
30.3162781625093
 20
59.9693451670699
 10
30.3154123
 20
59.9694483
 10
30.3154208
 20
59.9694653
 10
30.3152653
 20
59.9694848
 10
30.3152653
 20
59.9694848
  0
LWPOLYLINE
  5
53
  8
0
100
AcDbEntity
100
AcDbPolyline
 70
0
 90
10
 10
30.3152653
 20
59.9694848
 10
30.3153726
 20
59.9696994
 10
30.3167145
 20
59.9695315
 10
30.3164836
 20
59.9690692
 10
30.3161607291431
 20
59.9691117144287
 10
30.3162781625093
 20
59.9693451670699
 10
30.3154123
 20
59.9694483
 10
30.3154208
 20
59.9694653
 10
30.3152653
 20
59.9694848
 10
30.3152653
 20
59.9694848
  0
LWPOLYLINE
  5
54
  8
0
100
AcDbEntity
100
AcDbPolyline
 70
0
 90
11
 10
30.3151476
 20
59.9692566
 10
30.3152386
 20
59.9694006
 10
30.3153763
 20
59.9693821
 10
30.3154123
 20
59.9694483
 10
30.3156272
 20
59.9694214
 10
30.3155584
 20
59.969291
 10
30.3156486
 20
59.9692814
 10
30.315601
 20
59.9691861
 10
30.3155472
 20
59.9691928
 10
30.3151476
 20
59.9692566
 10
30.3151476
 20
59.9692566
  0
LWPOLYLINE
  5
55
  8
0
100
AcDbEntity
100
AcDbPolyline
 70
0
 90
11
 10
30.3151476
 20
59.9692566
 10
30.3152386
 20
59.9694006
 10
30.3153763
 20
59.9693821
 10
30.3154123
 20
59.9694483
 10
30.3156272
 20
59.9694214
 10
30.3155584
 20
59.969291
 10
30.3156486
 20
59.9692814
 10
30.315601
 20
59.9691861
 10
30.3155472
 20
59.9691928
 10
30.3151476
 20
59.9692566
 10
30.3151476
 20
59.9692566
  0
LWPOLYLINE
  5
56
  8
0
100
AcDbEntity
100
AcDbPolyline
 70
0
 90
11
 10
30.3151476
 20
59.9692566
 10
30.3152386
 20
59.9694006
 10
30.3153763
 20
59.9693821
 10
30.3154123
 20
59.9694483
 10
30.3156272
 20
59.9694214
 10
30.3155584
 20
59.969291
 10
30.3156486
 20
59.9692814
 10
30.315601
 20
59.9691861
 10
30.3155472
 20
59.9691928
 10
30.3151476
 20
59.9692566
 10
30.3151476
 20
59.9692566
  0
LWPOLYLINE
  5
57
  8
0
100
AcDbEntity
100
AcDbPolyline
 70
0
 90
7
 10
30.3144614
 20
59.9699199
 10
30.3146798
 20
59.969893
 10
30.3147289
 20
59.9694132
 10
30.3144954587699
 20
59.9694145495307
 10
30.3144706
 20
59.9695752999996
 10
30.3144614
 20
59.9699199
 10
30.3144614
 20
59.9699199
  0
LWPOLYLINE
  5
58
  8
0
100
AcDbEntity
100
AcDbPolyline
 70
0
 90
17
 10
30.3144954587699
 20
59.9694145495307
 10
30.3147787
 20
59.9694155
 10
30.314782
 20
59.9693669
 10
30.3147319
 20
59.9693625
 10
30.31473
 20
59.9692967
 10
30.3147738
 20
59.9692416
 10
30.3148877
 20
59.969198
 10
30.3150147
 20
59.9691582
 10
30.3149373
 20
59.9689974
 10
30.3148037
 20
59.9690104
 10
30.3148332
 20
59.9690793
 10
30.3147043
 20
59.9691126
 10
30.314626
 20
59.9691451
 10
30.3145437
 20
59.9691858
 10
30.3145094
 20
59.9692562
 10
30.3144954587699
 20
59.9694145495307
 10
30.3144954587699
 20
59.9694145495307
  0
LWPOLYLINE
  5
59
  8
0
100
AcDbEntity
100
AcDbPolyline
 70
0
 90
21
 10
30.3144614
 20
59.9699199
 10
30.3146798
 20
59.969893
 10
30.3147289
 20
59.9694132
 10
30.3147787
 20
59.9694155
 10
30.314782
 20
59.9693669
 10
30.3147319
 20
59.9693625
 10
30.31473
 20
59.9692967
 10
30.3147738
 20
59.9692416
 10
30.3148877
 20
59.969198
 10
30.3150147
 20
59.9691582
 10
30.3149373
 20
59.9689974
 10
30.3148037
 20
59.9690104
 10
30.3148332
 20
59.9690793
 10
30.3147043
 20
59.9691126
 10
30.314626
 20
59.9691451
 10
30.3145437
 20
59.9691858
 10
30.3145094
 20
59.9692562
 10
30.3144954587699
 20
59.9694145495307
 10
30.3144706
 20
59.9695753
 10
30.3144614
 20
59.9699199
 10
30.3144614
 20
59.9699199
  0
LWPOLYLINE
  5
5A
  8
0
100
AcDbEntity
100
AcDbPolyline
 70
0
 90
21
 10
30.3144614
 20
59.9699199
 10
30.3146798
 20
59.969893
 10
30.3147289
 20
59.9694132
 10
30.3147787
 20
59.9694155
 10
30.314782
 20
59.9693669
 10
30.3147319
 20
59.9693625
 10
30.31473
 20
59.9692967
 10
30.3147738
 20
59.9692416
 10
30.3148877
 20
59.969198
 10
30.3150147
 20
59.9691582
 10
30.3149373
 20
59.9689974
 10
30.3148037
 20
59.9690104
 10
30.3148332
 20
59.9690793
 10
30.3147043
 20
59.9691126
 10
30.314626
 20
59.9691451
 10
30.3145437
 20
59.9691858
 10
30.3145094
 20
59.9692562
 10
30.3144954587699
 20
59.9694145495307
 10
30.3144706
 20
59.9695753
 10
30.3144614
 20
59.9699199
 10
30.3144614
 20
59.9699199
  0
LWPOLYLINE
  5
5B
  8
0
100
AcDbEntity
100
AcDbPolyline
 70
0
 90
21
 10
30.3144614
 20
59.9699199
 10
30.3146798
 20
59.969893
 10
30.3147289
 20
59.9694132
 10
30.3147787
 20
59.9694155
 10
30.314782
 20
59.9693669
 10
30.3147319
 20
59.9693625
 10
30.31473
 20
59.9692967
 10
30.3147738
 20
59.9692416
 10
30.3148877
 20
59.969198
 10
30.3150147
 20
59.9691582
 10
30.3149373
 20
59.9689974
 10
30.3148037
 20
59.9690104
 10
30.3148332
 20
59.9690793
 10
30.3147043
 20
59.9691126
 10
30.314626
 20
59.9691451
 10
30.3145437
 20
59.9691858
 10
30.3145094
 20
59.9692562
 10
30.3144954587699
 20
59.9694145495307
 10
30.3144706
 20
59.9695753
 10
30.3144614
 20
59.9699199
 10
30.3144614
 20
59.9699199
  0
LWPOLYLINE
  5
5C
  8
0
100
AcDbEntity
100
AcDbPolyline
 70
0
 90
10
 10
30.3150873
 20
59.968671
 10
30.3152411
 20
59.9689788
 10
30.3155448
 20
59.9689408
 10
30.3155079
 20
59.9688668
 10
30.3156016
 20
59.9688551
 10
30.3155472
 20
59.9687462
 10
30.3154617
 20
59.9687569
 10
30.3153993
 20
59.9686319
 10
30.3150873
 20
59.968671
 10
30.3150873
 20
59.968671
  0
LWPOLYLINE
  5
5D
  8
0
100
AcDbEntity
100
AcDbPolyline
 70
0
 90
10
 10
30.3150873
 20
59.968671
 10
30.3152411
 20
59.9689788
 10
30.3155448
 20
59.9689408
 10
30.3155079
 20
59.9688668
 10
30.3156016
 20
59.9688551
 10
30.3155472
 20
59.9687462
 10
30.3154617
 20
59.9687569
 10
30.3153993
 20
59.9686319
 10
30.3150873
 20
59.968671
 10
30.3150873
 20
59.968671
  0
LWPOLYLINE
  5
5E
  8
0
100
AcDbEntity
100
AcDbPolyline
 70
0
 90
10
 10
30.3150873
 20
59.968671
 10
30.3152411
 20
59.9689788
 10
30.3155448
 20
59.9689408
 10
30.3155079
 20
59.9688668
 10
30.3156016
 20
59.9688551
 10
30.3155472
 20
59.9687462
 10
30.3154617
 20
59.9687569
 10
30.3153993
 20
59.9686319
 10
30.3150873
 20
59.968671
 10
30.3150873
 20
59.968671
  0
LWPOLYLINE
  5
5F
  8
0
100
AcDbEntity
100
AcDbPolyline
 70
0
 90
10
 10
30.3150873
 20
59.968671
 10
30.3152411
 20
59.9689788
 10
30.3155448
 20
59.9689408
 10
30.3155079
 20
59.9688668
 10
30.3156016
 20
59.9688551
 10
30.3155472
 20
59.9687462
 10
30.3154617
 20
59.9687569
 10
30.3153993
 20
59.9686319
 10
30.3150873
 20
59.968671
 10
30.3150873
 20
59.968671
  0
LWPOLYLINE
  5
60
  8
0
100
AcDbEntity
100
AcDbPolyline
 70
0
 90
6
 10
30.3153993
 20
59.9686319
 10
30.3159478
 20
59.9685617
 10
30.3159636
 20
59.9686223
 10
30.3154279
 20
59.9686892
 10
30.3153993
 20
59.9686319
 10
30.3153993
 20
59.9686319
  0
LWPOLYLINE
  5
61
  8
0
100
AcDbEntity
100
AcDbPolyline
 70
0
 90
6
 10
30.3153993
 20
59.9686319
 10
30.3159478
 20
59.9685617
 10
30.3159636
 20
59.9686223
 10
30.3154279
 20
59.9686892
 10
30.3153993
 20
59.9686319
 10
30.3153993
 20
59.9686319
  0
LWPOLYLINE
  5
62
  8
0
100
AcDbEntity
100
AcDbPolyline
 70
0
 90
8
 10
30.3155706
 20
59.9683681
 10
30.3155975
 20
59.9684969
 10
30.3159162
 20
59.9684751
 10
30.315978
 20
59.9686778
 10
30.3162663
 20
59.9686585
 10
30.3161702
 20
59.9683257
 10
30.3155706
 20
59.9683681
 10
30.3155706
 20
59.9683681
  0
LWPOLYLINE
  5
63
  8
0
100
AcDbEntity
100
AcDbPolyline
 70
0
 90
8
 10
30.3155706
 20
59.9683681
 10
30.3155975
 20
59.9684969
 10
30.3159162
 20
59.9684751
 10
30.315978
 20
59.9686778
 10
30.3162663
 20
59.9686585
 10
30.3161702
 20
59.9683257
 10
30.3155706
 20
59.9683681
 10
30.3155706
 20
59.9683681
  0
LWPOLYLINE
  5
64
  8
0
100
AcDbEntity
100
AcDbPolyline
 70
0
 90
8
 10
30.3155706
 20
59.9683681
 10
30.3155975
 20
59.9684969
 10
30.3159162
 20
59.9684751
 10
30.315978
 20
59.9686778
 10
30.3162663
 20
59.9686585
 10
30.3161702
 20
59.9683257
 10
30.3155706
 20
59.9683681
 10
30.3155706
 20
59.9683681
  0
LWPOLYLINE
  5
65
  8
0
100
AcDbEntity
100
AcDbPolyline
 70
0
 90
8
 10
30.3155706
 20
59.9683681
 10
30.3155975
 20
59.9684969
 10
30.3159162
 20
59.9684751
 10
30.315978
 20
59.9686778
 10
30.3162663
 20
59.9686585
 10
30.3161702
 20
59.9683257
 10
30.3155706
 20
59.9683681
 10
30.3155706
 20
59.9683681
  0
LWPOLYLINE
  5
66
  8
0
100
AcDbEntity
100
AcDbPolyline
 70
0
 90
8
 10
30.3155706
 20
59.9683681
 10
30.3155975
 20
59.9684969
 10
30.3159162
 20
59.9684751
 10
30.315978
 20
59.9686778
 10
30.3162663
 20
59.9686585
 10
30.3161702
 20
59.9683257
 10
30.3155706
 20
59.9683681
 10
30.3155706
 20
59.9683681
  0
LWPOLYLINE
  5
67
  8
0
100
AcDbEntity
100
AcDbPolyline
 70
0
 90
6
 10
30.3157827
 20
59.968055
 10
30.3161027453903
 20
59.9680371486732
 10
30.3161344
 20
59.9681957
 10
30.3158182
 20
59.9682135
 10
30.3157827
 20
59.968055
 10
30.3157827
 20
59.968055
  0
LWPOLYLINE
  5
68
  8
0
100
AcDbEntity
100
AcDbPolyline
 70
0
 90
6
 10
30.3157827
 20
59.968055
 10
30.3161027453903
 20
59.9680371486732
 10
30.3161344
 20
59.9681957
 10
30.3158182
 20
59.9682135
 10
30.3157827
 20
59.968055
 10
30.3157827
 20
59.968055
  0
LWPOLYLINE
  5
69
  8
0
100
AcDbEntity
100
AcDbPolyline
 70
0
 90
6
 10
30.3157827
 20
59.968055
 10
30.3161027453903
 20
59.9680371486732
 10
30.3161344
 20
59.9681957
 10
30.3158182
 20
59.9682135
 10
30.3157827
 20
59.968055
 10
30.3157827
 20
59.968055
  0
LWPOLYLINE
  5
6A
  8
0
100
AcDbEntity
100
AcDbPolyline
 70
0
 90
6
 10
30.3157827
 20
59.968055
 10
30.3161027453903
 20
59.9680371486732
 10
30.3161344
 20
59.9681957
 10
30.3158182
 20
59.9682135
 10
30.3157827
 20
59.968055
 10
30.3157827
 20
59.968055
  0
LWPOLYLINE
  5
6B
  8
0
100
AcDbEntity
100
AcDbPolyline
 70
0
 90
6
 10
30.3157827
 20
59.968055
 10
30.3161027453903
 20
59.9680371486732
 10
30.3161344
 20
59.9681957
 10
30.3158182
 20
59.9682135
 10
30.3157827
 20
59.968055
 10
30.3157827
 20
59.968055
  0
LWPOLYLINE
  5
6C
  8
0
100
AcDbEntity
100
AcDbPolyline
 70
0
 90
6
 10
30.3146498988264
 20
59.9707339029365
 10
30.3146681988265
 20
59.9708706029365
 10
30.3151706994519
 20
59.9708544097875
 10
30.3151446031483
 20
59.9707189156784
 10
30.3146498988264
 20
59.9707339029365
 10
30.3146498988264
 20
59.9707339029365
  0
LWPOLYLINE
  5
6D
  8
0
100
AcDbEntity
100
AcDbPolyline
 70
0
 90
8
 10
30.3151446043219
 20
59.9707189127418
 10
30.3151707006255
 20
59.970854406851
 10
30.3166833
 20
59.970803
 10
30.3166401
 20
59.9704812
 10
30.3163121
 20
59.9704922
 10
30.3163369
 20
59.9706772
 10
30.3151446043219
 20
59.9707189127418
 10
30.3151446043219
 20
59.9707189127418
  0
LWPOLYLINE
  5
6E
  8
0
100
AcDbEntity
100
AcDbPolyline
 70
0
 90
6
 10
30.3146499751077
 20
59.9707339
 10
30.3146682751077
 20
59.9708706
 10
30.3151707757332
 20
59.970854406851
 10
30.3151446794296
 20
59.9707189127418
 10
30.3146499751077
 20
59.9707339
 10
30.3146499751077
 20
59.9707339
  0
LWPOLYLINE
  5
6F
  8
0
100
AcDbEntity
100
AcDbPolyline
 70
0
 90
8
 10
30.3151446043219
 20
59.9707189127418
 10
30.3151707006255
 20
59.970854406851
 10
30.3166833
 20
59.970803
 10
30.3166401
 20
59.9704812
 10
30.3163121
 20
59.9704922
 10
30.3163369
 20
59.9706772
 10
30.3151446043219
 20
59.9707189127418
 10
30.3151446043219
 20
59.9707189127418
  0
LWPOLYLINE
  5
70
  8
0
100
AcDbEntity
100
AcDbPolyline
 70
0
 90
8
 10
30.3146499
 20
59.9707339
 10
30.3146682
 20
59.9708706
 10
30.3166833
 20
59.970803
 10
30.3166401
 20
59.9704812
 10
30.3163121
 20
59.9704922
 10
30.3163369
 20
59.9706772
 10
30.3146499
 20
59.9707339
 10
30.3146499
 20
59.9707339
  0
LWPOLYLINE
  5
71
  8
0
100
AcDbEntity
100
AcDbPolyline
 70
0
 90
8
 10
30.3146499
 20
59.9707339
 10
30.3146682
 20
59.9708706
 10
30.3166833
 20
59.970803
 10
30.3166401
 20
59.9704812
 10
30.3163121
 20
59.9704922
 10
30.3163369
 20
59.9706772
 10
30.3146499
 20
59.9707339
 10
30.3146499
 20
59.9707339
  0
LWPOLYLINE
  5
72
  8
0
100
AcDbEntity
100
AcDbPolyline
 70
0
 90
6
 10
30.3175607
 20
59.9699111
 10
30.3182329
 20
59.9698512
 10
30.3182644
 20
59.9699253
 10
30.3175896
 20
59.9699902
 10
30.3175607
 20
59.9699111
 10
30.3175607
 20
59.9699111
  0
LWPOLYLINE
  5
73
  8
0
100
AcDbEntity
100
AcDbPolyline
 70
0
 90
6
 10
30.3175607
 20
59.9699111
 10
30.3182329
 20
59.9698512
 10
30.3182644
 20
59.9699253
 10
30.3175896
 20
59.9699902
 10
30.3175607
 20
59.9699111
 10
30.3175607
 20
59.9699111
  0
LWPOLYLINE
  5
74
  8
0
100
AcDbEntity
100
AcDbPolyline
 70
0
 90
6
 10
30.3175607
 20
59.9699111
 10
30.3182329
 20
59.9698512
 10
30.3182644
 20
59.9699253
 10
30.3175896
 20
59.9699902
 10
30.3175607
 20
59.9699111
 10
30.3175607
 20
59.9699111
  0
LWPOLYLINE
  5
75
  8
0
100
AcDbEntity
100
AcDbPolyline
 70
0
 90
6
 10
30.3175607
 20
59.9699111
 10
30.3182329
 20
59.9698512
 10
30.3182644
 20
59.9699253
 10
30.3175896
 20
59.9699902
 10
30.3175607
 20
59.9699111
 10
30.3175607
 20
59.9699111
  0
LWPOLYLINE
  5
76
  8
0
100
AcDbEntity
100
AcDbPolyline
 70
0
 90
14
 10
30.3180189
 20
59.9705568
 10
30.3180342
 20
59.9707472
 10
30.3188622883636
 20
59.970719593091
 10
30.3188631
 20
59.9707627
 10
30.3189779
 20
59.9707604
 10
30.3189724
 20
59.9707139
 10
30.3190923
 20
59.9707088
 10
30.3189203
 20
59.9703439
 10
30.3186263
 20
59.9703604
 10
30.3187123
 20
59.9705398
 10
30.3182587
 20
59.9705687
 10
30.318251
 20
59.9705341
 10
30.3180189
 20
59.9705568
 10
30.3180189
 20
59.9705568
  0
LWPOLYLINE
  5
77
  8
0
100
AcDbEntity
100
AcDbPolyline
 70
0
 90
14
 10
30.3180189
 20
59.9705568
 10
30.3180342
 20
59.9707472
 10
30.3188622883636
 20
59.970719593091
 10
30.3188631
 20
59.9707627
 10
30.3189779
 20
59.9707604
 10
30.3189724
 20
59.9707139
 10
30.3190923
 20
59.9707088
 10
30.3189203
 20
59.9703439
 10
30.3186263
 20
59.9703604
 10
30.3187123
 20
59.9705398
 10
30.3182587
 20
59.9705687
 10
30.318251
 20
59.9705341
 10
30.3180189
 20
59.9705568
 10
30.3180189
 20
59.9705568
  0
LWPOLYLINE
  5
78
  8
0
100
AcDbEntity
100
AcDbPolyline
 70
0
 90
14
 10
30.3180189
 20
59.9705568
 10
30.3180342
 20
59.9707472
 10
30.3188622883636
 20
59.970719593091
 10
30.3188631
 20
59.9707627
 10
30.3189779
 20
59.9707604
 10
30.3189724
 20
59.9707139
 10
30.3190923
 20
59.9707088
 10
30.3189203
 20
59.9703439
 10
30.3186263
 20
59.9703604
 10
30.3187123
 20
59.9705398
 10
30.3182587
 20
59.9705687
 10
30.318251
 20
59.9705341
 10
30.3180189
 20
59.9705568
 10
30.3180189
 20
59.9705568
  0
LWPOLYLINE
  5
79
  8
0
100
AcDbEntity
100
AcDbPolyline
 70
0
 90
14
 10
30.3180189
 20
59.9705568
 10
30.3180342
 20
59.9707472
 10
30.3188622883636
 20
59.970719593091
 10
30.3188631
 20
59.9707627
 10
30.3189779
 20
59.9707604
 10
30.3189724
 20
59.9707139
 10
30.3190923
 20
59.9707088
 10
30.3189203
 20
59.9703439
 10
30.3186263
 20
59.9703604
 10
30.3187123
 20
59.9705398
 10
30.3182587
 20
59.9705687
 10
30.318251
 20
59.9705341
 10
30.3180189
 20
59.9705568
 10
30.3180189
 20
59.9705568
  0
LWPOLYLINE
  5
7A
  8
0
100
AcDbEntity
100
AcDbPolyline
 70
0
 90
14
 10
30.3180189
 20
59.9705568
 10
30.3180342
 20
59.9707472
 10
30.3188622883636
 20
59.970719593091
 10
30.3188631
 20
59.9707627
 10
30.3189779
 20
59.9707604
 10
30.3189724
 20
59.9707139
 10
30.3190923
 20
59.9707088
 10
30.3189203
 20
59.9703439
 10
30.3186263
 20
59.9703604
 10
30.3187123
 20
59.9705398
 10
30.3182587
 20
59.9705687
 10
30.318251
 20
59.9705341
 10
30.3180189
 20
59.9705568
 10
30.3180189
 20
59.9705568
  0
LWPOLYLINE
  5
7B
  8
0
100
AcDbEntity
100
AcDbPolyline
 70
0
 90
14
 10
30.3180189
 20
59.9705568
 10
30.3180342
 20
59.9707472
 10
30.3188622883636
 20
59.970719593091
 10
30.3188631
 20
59.9707627
 10
30.3189779
 20
59.9707604
 10
30.3189724
 20
59.9707139
 10
30.3190923
 20
59.9707088
 10
30.3189203
 20
59.9703439
 10
30.3186263
 20
59.9703604
 10
30.3187123
 20
59.9705398
 10
30.3182587
 20
59.9705687
 10
30.318251
 20
59.9705341
 10
30.3180189
 20
59.9705568
 10
30.3180189
 20
59.9705568
  0
LWPOLYLINE
  5
7C
  8
0
100
AcDbEntity
100
AcDbPolyline
 70
0
 90
14
 10
30.3180189
 20
59.9705568
 10
30.3180342
 20
59.9707472
 10
30.3188622883636
 20
59.970719593091
 10
30.3188631
 20
59.9707627
 10
30.3189779
 20
59.9707604
 10
30.3189724
 20
59.9707139
 10
30.3190923
 20
59.9707088
 10
30.3189203
 20
59.9703439
 10
30.3186263
 20
59.9703604
 10
30.3187123
 20
59.9705398
 10
30.3182587
 20
59.9705687
 10
30.318251
 20
59.9705341
 10
30.3180189
 20
59.9705568
 10
30.3180189
 20
59.9705568
  0
LWPOLYLINE
  5
7D
  8
0
100
AcDbEntity
100
AcDbPolyline
 70
0
 90
6
 10
30.318374
 20
59.9700043
 10
30.3185277
 20
59.9703659
 10
30.3189203
 20
59.9703439
 10
30.3187140893482
 20
59.9699761339815
 10
30.318374
 20
59.9700043
 10
30.318374
 20
59.9700043
  0
LWPOLYLINE
  5
7E
  8
0
100
AcDbEntity
100
AcDbPolyline
 70
0
 90
6
 10
30.318374
 20
59.9700043
 10
30.3185277
 20
59.9703659
 10
30.3189203
 20
59.9703439
 10
30.3187140893482
 20
59.9699761339815
 10
30.318374
 20
59.9700043
 10
30.318374
 20
59.9700043
  0
LWPOLYLINE
  5
7F
  8
0
100
AcDbEntity
100
AcDbPolyline
 70
0
 90
6
 10
30.318374
 20
59.9700043
 10
30.3185277
 20
59.9703659
 10
30.3189203
 20
59.9703439
 10
30.3187140893482
 20
59.9699761339815
 10
30.318374
 20
59.9700043
 10
30.318374
 20
59.9700043
  0
LWPOLYLINE
  5
80
  8
0
100
AcDbEntity
100
AcDbPolyline
 70
0
 90
6
 10
30.318374
 20
59.9700043
 10
30.3185277
 20
59.9703659
 10
30.3189203
 20
59.9703439
 10
30.3187140893482
 20
59.9699761339815
 10
30.318374
 20
59.9700043
 10
30.318374
 20
59.9700043
  0
LWPOLYLINE
  5
81
  8
0
100
AcDbEntity
100
AcDbPolyline
 70
0
 90
6
 10
30.318374
 20
59.9700043
 10
30.3185277
 20
59.9703659
 10
30.3189203
 20
59.9703439
 10
30.3187140893482
 20
59.9699761339815
 10
30.318374
 20
59.9700043
 10
30.318374
 20
59.9700043
  0
LWPOLYLINE
  5
82
  8
0
100
AcDbEntity
100
AcDbPolyline
 70
0
 90
6
 10
30.318374
 20
59.9700043
 10
30.3185277
 20
59.9703659
 10
30.3189203
 20
59.9703439
 10
30.3187140893482
 20
59.9699761339815
 10
30.318374
 20
59.9700043
 10
30.318374
 20
59.9700043
  0
LWPOLYLINE
  5
83
  8
0
100
AcDbEntity
100
AcDbPolyline
 70
0
 90
6
 10
30.318374
 20
59.9700043
 10
30.3185277
 20
59.9703659
 10
30.3189203
 20
59.9703439
 10
30.3187140893482
 20
59.9699761339815
 10
30.318374
 20
59.9700043
 10
30.318374
 20
59.9700043
  0
LWPOLYLINE
  5
84
  8
0
100
AcDbEntity
100
AcDbPolyline
 70
0
 90
12
 10
30.3187140893482
 20
59.9699761339815
 10
30.3186665
 20
59.9698914
 10
30.3178051
 20
59.9699839
 10
30.3179432
 20
59.9703025
 10
30.3181679
 20
59.9702844
 10
30.3181628
 20
59.9703246
 10
30.3183297
 20
59.9703077
 10
30.3183584
 20
59.9703043
 10
30.3181968
 20
59.9700201
 10
30.318374
 20
59.9700043
 10
30.3187140893482
 20
59.9699761339815
 10
30.3187140893482
 20
59.9699761339815
  0
LWPOLYLINE
  5
85
  8
0
100
AcDbEntity
100
AcDbPolyline
 70
0
 90
12
 10
30.3187140893482
 20
59.9699761339815
 10
30.3186665
 20
59.9698914
 10
30.3178051
 20
59.9699839
 10
30.3179432
 20
59.9703025
 10
30.3181679
 20
59.9702844
 10
30.3181628
 20
59.9703246
 10
30.3183297
 20
59.9703077
 10
30.3183584
 20
59.9703043
 10
30.3181968
 20
59.9700201
 10
30.318374
 20
59.9700043
 10
30.3187140893482
 20
59.9699761339815
 10
30.3187140893482
 20
59.9699761339815
  0
LWPOLYLINE
  5
86
  8
0
100
AcDbEntity
100
AcDbPolyline
 70
0
 90
12
 10
30.3187140893482
 20
59.9699761339815
 10
30.3186665
 20
59.9698914
 10
30.3178051
 20
59.9699839
 10
30.3179432
 20
59.9703025
 10
30.3181679
 20
59.9702844
 10
30.3181628
 20
59.9703246
 10
30.3183297
 20
59.9703077
 10
30.3183584
 20
59.9703043
 10
30.3181968
 20
59.9700201
 10
30.318374
 20
59.9700043
 10
30.3187140893482
 20
59.9699761339815
 10
30.3187140893482
 20
59.9699761339815
  0
LWPOLYLINE
  5
87
  8
0
100
AcDbEntity
100
AcDbPolyline
 70
0
 90
12
 10
30.3187140893482
 20
59.9699761339815
 10
30.3186665
 20
59.9698914
 10
30.3178051
 20
59.9699839
 10
30.3179432
 20
59.9703025
 10
30.3181679
 20
59.9702844
 10
30.3181628
 20
59.9703246
 10
30.3183297
 20
59.9703077
 10
30.3183584
 20
59.9703043
 10
30.3181968
 20
59.9700201
 10
30.318374
 20
59.9700043
 10
30.3187140893482
 20
59.9699761339815
 10
30.3187140893482
 20
59.9699761339815
  0
LWPOLYLINE
  5
88
  8
0
100
AcDbEntity
100
AcDbPolyline
 70
0
 90
12
 10
30.3187140893482
 20
59.9699761339815
 10
30.3186665
 20
59.9698914
 10
30.3178051
 20
59.9699839
 10
30.3179432
 20
59.9703025
 10
30.3181679
 20
59.9702844
 10
30.3181628
 20
59.9703246
 10
30.3183297
 20
59.9703077
 10
30.3183584
 20
59.9703043
 10
30.3181968
 20
59.9700201
 10
30.318374
 20
59.9700043
 10
30.3187140893482
 20
59.9699761339815
 10
30.3187140893482
 20
59.9699761339815
  0
LWPOLYLINE
  5
89
  8
0
100
AcDbEntity
100
AcDbPolyline
 70
0
 90
12
 10
30.3187140893482
 20
59.9699761339815
 10
30.3186665
 20
59.9698914
 10
30.3178051
 20
59.9699839
 10
30.3179432
 20
59.9703025
 10
30.3181679
 20
59.9702844
 10
30.3181628
 20
59.9703246
 10
30.3183297
 20
59.9703077
 10
30.3183584
 20
59.9703043
 10
30.3181968
 20
59.9700201
 10
30.318374
 20
59.9700043
 10
30.3187140893482
 20
59.9699761339815
 10
30.3187140893482
 20
59.9699761339815
  0
LWPOLYLINE
  5
8A
  8
0
100
AcDbEntity
100
AcDbPolyline
 70
0
 90
12
 10
30.3187140893482
 20
59.9699761339815
 10
30.3186665
 20
59.9698914
 10
30.3178051
 20
59.9699839
 10
30.3179432
 20
59.9703025
 10
30.3181679
 20
59.9702844
 10
30.3181628
 20
59.9703246
 10
30.3183297
 20
59.9703077
 10
30.3183584
 20
59.9703043
 10
30.3181968
 20
59.9700201
 10
30.318374
 20
59.9700043
 10
30.3187140893482
 20
59.9699761339815
 10
30.3187140893482
 20
59.9699761339815
  0
ENDSEC
  0
SECTION
  2
OBJECTS
  0
DICTIONARY
  5
C
330
0
100
AcDbDictionary
281
     1
  3
ACAD_GROUP
350
D
  3
ACAD_LAYOUT
350
1A
  3
ACAD_MLEADERSTYLE
350
43
  3
ACAD_MLINESTYLE
350
17
  3
ACAD_PLOTSETTINGS
350
19
  3
ACAD_PLOTSTYLENAME
350
E
  3
ACAD_TABLESTYLE
350
42
  3
ACAD_VISUALSTYLE
350
2A
  0
DICTIONARY
  5
D
102
{ACAD_REACTORS
330
C
102
}
330
C
100
AcDbDictionary
281
     1
  0
DICTIONARY
  5
1A
102
{ACAD_REACTORS
330
C
102
}
330
C
100
AcDbDictionary
281
     1
  3
Layout1
350
1E
  3
Layout2
350
26
  3
Model
350
22
  0
DICTIONARY
  5
43
102
{ACAD_REACTORS
330
C
102
}
330
C
100
AcDbDictionary
281
     1
  0
DICTIONARY
  5
17
102
{ACAD_REACTORS
330
C
102
}
330
C
100
AcDbDictionary
281
     1
  3
Standard
350
18
  0
DICTIONARY
  5
19
102
{ACAD_REACTORS
330
C
102
}
330
C
100
AcDbDictionary
281
     1
  0
ACDBDICTIONARYWDFLT
  5
E
102
{ACAD_REACTORS
330
C
102
}
330
C
100
AcDbDictionary
281
     1
  3
Normal
350
F
100
AcDbDictionaryWithDefault
340
F
  0
DICTIONARY
  5
42
102
{ACAD_REACTORS
330
C
102
}
330
C
100
AcDbDictionary
281
     1
  0
DICTIONARY
  5
2A
102
{ACAD_REACTORS
330
C
102
}
330
C
100
AcDbDictionary
281
     1
  3
2dWireframe
350
2F
  3
3D Hidden
350
31
  3
3dWireframe
350
30
  3
Basic
350
32
  3
Brighten
350
36
  3
ColorChange
350
3A
  3
Conceptual
350
34
  3
Dim
350
35
  3
Facepattern
350
39
  3
Flat
350
2B
  3
FlatWithEdges
350
2C
  3
Gouraud
350
2D
  3
GouraudWithEdges
350
2E
  3
Linepattern
350
38
  3
Realistic
350
33
  3
Thicken
350
37
  0
LAYOUT
  5
1E
102
{ACAD_REACTORS
330
1A
102
}
330
1A
100
AcDbPlotSettings
  1

  2
none_device
  4

  6

 40
0.0
 41
0.0
 42
0.0
 43
0.0
 44
0.0
 45
0.0
 46
0.0
 47
0.0
 48
0.0
 49
0.0
140
0.0
141
0.0
142
1.0
143
1.0
 70
   688
 72
     0
 73
     0
 74
     5
  7

 75
    16
 76
     0
 77
     2
 78
   300
147
1.0
148
0.0
149
0.0
100
AcDbLayout
  1
Layout1
 70
     1
 71
     1
 10
0.0
 20
0.0
 11
12.0
 21
9.0
 12
0.0
 22
0.0
 32
0.0
 14
1.000000000000000E+20
 24
1.000000000000000E+20
 34
1.000000000000000E+20
 15
-1.000000000000000E+20
 25
-1.000000000000000E+20
 35
-1.000000000000000E+20
146
0.0
 13
0.0
 23
0.0
 33
0.0
 16
1.0
 26
0.0
 36
0.0
 17
0.0
 27
1.0
 37
0.0
 76
     0
330
1B
  0
LAYOUT
  5
26
102
{ACAD_REACTORS
330
1A
102
}
330
1A
100
AcDbPlotSettings
  1

  2
none_device
  4

  6

 40
0.0
 41
0.0
 42
0.0
 43
0.0
 44
0.0
 45
0.0
 46
0.0
 47
0.0
 48
0.0
 49
0.0
140
0.0
141
0.0
142
1.0
143
1.0
 70
   688
 72
     0
 73
     0
 74
     5
  7

 75
    16
 76
     0
 77
     2
 78
   300
147
1.0
148
0.0
149
0.0
100
AcDbLayout
  1
Layout2
 70
     1
 71
     2
 10
0.0
 20
0.0
 11
0.0
 21
0.0
 12
0.0
 22
0.0
 32
0.0
 14
0.0
 24
0.0
 34
0.0
 15
0.0
 25
0.0
 35
0.0
146
0.0
 13
0.0
 23
0.0
 33
0.0
 16
1.0
 26
0.0
 36
0.0
 17
0.0
 27
1.0
 37
0.0
 76
     0
330
23
  0
LAYOUT
  5
22
102
{ACAD_REACTORS
330
1A
102
}
330
1A
100
AcDbPlotSettings
  1

  2
none_device
  4

  6

 40
0.0
 41
0.0
 42
0.0
 43
0.0
 44
0.0
 45
0.0
 46
0.0
 47
0.0
 48
0.0
 49
0.0
140
0.0
141
0.0
142
1.0
143
1.0
 70
  1712
 72
     0
 73
     0
 74
     0
  7

 75
     0
 76
     0
 77
     2
 78
   300
147
1.0
148
0.0
149
0.0
100
AcDbLayout
  1
Model
 70
     1
 71
     0
 10
0.0
 20
0.0
 11
12.0
 21
9.0
 12
0.0
 22
0.0
 32
0.0
 14
30.0
 24
49.75
 34
0.0
 15
130.5
 25
163.1318914119703
 35
0.0
146
0.0
 13
0.0
 23
0.0
 33
0.0
 16
1.0
 26
0.0
 36
0.0
 17
0.0
 27
1.0
 37
0.0
 76
     0
330
1F
331
29
  0
MLINESTYLE
  5
18
102
{ACAD_REACTORS
330
17
102
}
330
17
100
AcDbMlineStyle
  2
Standard
 70
     0
  3

 62
   256
 51
90.0
 52
90.0
 71
     2
 49
0.5
 62
   256
  6
BYLAYER
 49
-0.5
 62
   256
  6
BYLAYER
  0
ACDBPLACEHOLDER
  5
F
102
{ACAD_REACTORS
330
E
102
}
330
E
  0
VISUALSTYLE
  5
2F
102
{ACAD_REACTORS
330
2A
102
}
330
2A
100
AcDbVisualStyle
  2
2dWireframe
 70
     4
 71
     0
 72
     2
 73
     0
 90
        0
 40
-0.6
 41
-30.0
 62
     5
 63
     7
421
 16777215
 74
     1
 91
        4
 64
     7
 65
   257
 75
     1
175
     1
 42
1.0
 92
        0
 66
   257
 43
1.0
 76
     1
 77
     6
 78
     2
 67
     7
 79
     5
170
     0
171
     0
290
     0
174
     0
 93
        1
 44
0.0
173
     0
291
     0
 45
0.0
1001
ACAD
1000
AcDbSavedByObjectVersion
1070
     0
  0
VISUALSTYLE
  5
31
102
{ACAD_REACTORS
330
2A
102
}
330
2A
100
AcDbVisualStyle
  2
3D Hidden
 70
     6
 71
     1
 72
     2
 73
     2
 90
        0
 40
-0.6
 41
-30.0
 62
     5
 63
     7
421
 16777215
 74
     2
 91
        2
 64
     7
 65
   257
 75
     2
175
     1
 42
40.0
 92
        0
 66
   257
 43
1.0
 76
     1
 77
     6
 78
     2
 67
     7
 79
     3
170
     0
171
     0
290
     0
174
     0
 93
        1
 44
0.0
173
     0
291
     0
 45
0.0
1001
ACAD
1000
AcDbSavedByObjectVersion
1070
     0
  0
VISUALSTYLE
  5
30
102
{ACAD_REACTORS
330
2A
102
}
330
2A
100
AcDbVisualStyle
  2
3dWireframe
 70
     5
 71
     0
 72
     2
 73
     0
 90
        0
 40
-0.6
 41
-30.0
 62
     5
 63
     7
421
 16777215
 74
     1
 91
        4
 64
     7
 65
   257
 75
     1
175
     1
 42
1.0
 92
        0
 66
   257
 43
1.0
 76
     1
 77
     6
 78
     2
 67
     7
 79
     5
170
     0
171
     0
290
     0
174
     0
 93
        1
 44
0.0
173
     0
291
     0
 45
0.0
1001
ACAD
1000
AcDbSavedByObjectVersion
1070
     0
  0
VISUALSTYLE
  5
32
102
{ACAD_REACTORS
330
2A
102
}
330
2A
100
AcDbVisualStyle
  2
Basic
 70
     7
 71
     1
 72
     0
 73
     1
 90
        0
 40
-0.6
 41
-30.0
 62
     5
 63
     7
421
 16777215
 74
     0
 91
        4
 64
     7
 65
   257
 75
     1
175
     1
 42
1.0
 92
        8
 66
     7
 43
1.0
 76
     1
 77
     6
 78
     2
 67
     7
 79
     5
170
     0
171
     0
290
     0
174
     0
 93
        1
 44
0.0
173
     0
291
     1
 45
0.0
1001
ACAD
1000
AcDbSavedByObjectVersion
1070
     0
  0
VISUALSTYLE
  5
36
102
{ACAD_REACTORS
330
2A
102
}
330
2A
100
AcDbVisualStyle
  2
Brighten
 70
    12
 71
     2
 72
     2
 73
     0
 90
        0
 40
-0.6
 41
-30.0
 62
     5
 63
     7
421
 16777215
 74
     1
 91
        4
 64
     7
 65
   257
 75
     1
175
     1
 42
1.0
 92
        8
 66
     7
 43
1.0
 76
     1
 77
     6
 78
     2
 67
     7
 79
     5
170
     0
171
     0
290
     0
174
     0
 93
        1
 44
50.0
173
     0
291
     1
 45
0.0
1001
ACAD
1000
AcDbSavedByObjectVersion
1070
     0
  0
VISUALSTYLE
  5
3A
102
{ACAD_REACTORS
330
2A
102
}
330
2A
100
AcDbVisualStyle
  2
ColorChange
 70
    16
 71
     2
 72
     2
 73
     3
 90
        0
 40
-0.6
 41
-30.0
 62
     5
 63
     8
421
  8421504
 74
     1
 91
        4
 64
     7
 65
   257
 75
     1
175
     1
 42
1.0
 92
        8
 66
     8
424
  8421504
 43
1.0
 76
     1
 77
     6
 78
     2
 67
     7
 79
     5
170
     0
171
     0
290
     0
174
     0
 93
        1
 44
0.0
173
     0
291
     1
 45
0.0
1001
ACAD
1000
AcDbSavedByObjectVersion
1070
     0
  0
VISUALSTYLE
  5
34
102
{ACAD_REACTORS
330
2A
102
}
330
2A
100
AcDbVisualStyle
  2
Conceptual
 70
     9
 71
     3
 72
     2
 73
     0
 90
        0
 40
-0.6
 41
-30.0
 62
     5
 63
     7
421
 16777215
 74
     2
 91
        2
 64
     7
 65
   257
 75
     1
175
     1
 42
40.0
 92
        8
 66
     7
 43
1.0
 76
     1
 77
     6
 78
     2
 67
     7
 79
     3
170
     0
171
     0
290
     0
174
     0
 93
        1
 44
0.0
173
     0
291
     0
 45
0.0
1001
ACAD
1000
AcDbSavedByObjectVersion
1070
     0
  0
VISUALSTYLE
  5
35
102
{ACAD_REACTORS
330
2A
102
}
330
2A
100
AcDbVisualStyle
  2
Dim
 70
    11
 71
     2
 72
     2
 73
     0
 90
        0
 40
-0.6
 41
-30.0
 62
     5
 63
     7
421
 16777215
 74
     1
 91
        4
 64
     7
 65
   257
 75
     1
175
     1
 42
1.0
 92
        8
 66
     7
 43
1.0
 76
     1
 77
     6
 78
     2
 67
     7
 79
     5
170
     0
171
     0
290
     0
174
     0
 93
        1
 44
-50.0
173
     0
291
     1
 45
0.0
1001
ACAD
1000
AcDbSavedByObjectVersion
1070
     0
  0
VISUALSTYLE
  5
39
102
{ACAD_REACTORS
330
2A
102
}
330
2A
100
AcDbVisualStyle
  2
Facepattern
 70
    15
 71
     2
 72
     2
 73
     0
 90
        0
 40
-0.6
 41
-30.0
 62
     5
 63
     7
421
 16777215
 74
     1
 91
        4
 64
     7
 65
   257
 75
     1
175
     1
 42
1.0
 92
        8
 66
     7
 43
1.0
 76
     1
 77
     6
 78
     2
 67
     7
 79
     5
170
     0
171
     0
290
     0
174
     0
 93
        1
 44
0.0
173
     0
291
     1
 45
0.0
1001
ACAD
1000
AcDbSavedByObjectVersion
1070
     0
  0
VISUALSTYLE
  5
2B
102
{ACAD_REACTORS
330
2A
102
}
330
2A
100
AcDbVisualStyle
  2
Flat
 70
     0
 71
     2
 72
     1
 73
     1
 90
        2
 40
-0.6
 41
30.0
 62
     5
 63
     7
421
 16777215
 74
     0
 91
        4
 64
     7
 65
   257
 75
     1
175
     1
 42
1.0
 92
        8
 66
     7
 43
1.0
 76
     1
 77
     6
 78
     2
 67
     7
 79
     5
170
     0
171
     0
290
     0
174
     0
 93
       13
 44
0.0
173
     0
291
     1
 45
0.0
1001
ACAD
1000
AcDbSavedByObjectVersion
1070
     0
  0
VISUALSTYLE
  5
2C
102
{ACAD_REACTORS
330
2A
102
}
330
2A
100
AcDbVisualStyle
  2
FlatWithEdges
 70
     1
 71
     2
 72
     1
 73
     1
 90
        2
 40
-0.6
 41
30.0
 62
     5
 63
     7
421
 16777215
 74
     1
 91
        4
 64
     7
 65
   257
 75
     1
175
     1
 42
1.0
 92
        0
 66
   257
 43
1.0
 76
     1
 77
     6
 78
     2
 67
     7
 79
     5
170
     0
171
     0
290
     0
174
     0
 93
       13
 44
0.0
173
     0
291
     1
 45
0.0
1001
ACAD
1000
AcDbSavedByObjectVersion
1070
     0
  0
VISUALSTYLE
  5
2D
102
{ACAD_REACTORS
330
2A
102
}
330
2A
100
AcDbVisualStyle
  2
Gouraud
 70
     2
 71
     2
 72
     2
 73
     1
 90
        2
 40
-0.6
 41
30.0
 62
     5
 63
     7
421
 16777215
 74
     0
 91
        4
 64
     7
 65
   257
 75
     1
175
     1
 42
1.0
 92
        0
 66
     7
 43
1.0
 76
     1
 77
     6
 78
     2
 67
     7
 79
     5
170
     0
171
     0
290
     0
174
     0
 93
       13
 44
0.0
173
     0
291
     1
 45
0.0
1001
ACAD
1000
AcDbSavedByObjectVersion
1070
     0
  0
VISUALSTYLE
  5
2E
102
{ACAD_REACTORS
330
2A
102
}
330
2A
100
AcDbVisualStyle
  2
GouraudWithEdges
 70
     3
 71
     2
 72
     2
 73
     1
 90
        2
 40
-0.6
 41
30.0
 62
     5
 63
     7
421
 16777215
 74
     1
 91
        4
 64
     7
 65
   257
 75
     1
175
     1
 42
1.0
 92
        0
 66
   257
 43
1.0
 76
     1
 77
     6
 78
     2
 67
     7
 79
     5
170
     0
171
     0
290
     0
174
     0
 93
       13
 44
0.0
173
     0
291
     1
 45
0.0
1001
ACAD
1000
AcDbSavedByObjectVersion
1070
     0
  0
VISUALSTYLE
  5
38
102
{ACAD_REACTORS
330
2A
102
}
330
2A
100
AcDbVisualStyle
  2
Linepattern
 70
    14
 71
     2
 72
     2
 73
     0
 90
        0
 40
-0.6
 41
-30.0
 62
     5
 63
     7
421
 16777215
 74
     1
 91
        4
 64
     7
 65
   257
 75
     7
175
     7
 42
1.0
 92
        8
 66
     7
 43
1.0
 76
     1
 77
     6
 78
     2
 67
     7
 79
     5
170
     0
171
     0
290
     0
174
     0
 93
        1
 44
0.0
173
     0
291
     1
 45
0.0
1001
ACAD
1000
AcDbSavedByObjectVersion
1070
     0
  0
VISUALSTYLE
  5
33
102
{ACAD_REACTORS
330
2A
102
}
330
2A
100
AcDbVisualStyle
  2
Realistic
 70
     8
 71
     2
 72
     2
 73
     0
 90
        0
 40
-0.6
 41
-30.0
 62
     5
 63
     7
421
 16777215
 74
     1
 91
        0
 64
     7
 65
   257
 75
     1
175
     1
 42
1.0
 92
        8
 66
     8
424
  7895160
 43
1.0
 76
     1
 77
     6
 78
     2
 67
     7
 79
     5
170
     0
171
     0
290
     0
174
     0
 93
       13
 44
0.0
173
     0
291
     0
 45
0.0
1001
ACAD
1000
AcDbSavedByObjectVersion
1070
     0
  0
VISUALSTYLE
  5
37
102
{ACAD_REACTORS
330
2A
102
}
330
2A
100
AcDbVisualStyle
  2
Thicken
 70
    13
 71
     2
 72
     2
 73
     0
 90
        0
 40
-0.6
 41
-30.0
 62
     5
 63
     7
421
 16777215
 74
     1
 91
        4
 64
     7
 65
   257
 75
     1
175
     1
 42
1.0
 92
       12
 66
     7
 43
1.0
 76
     1
 77
     6
 78
     2
 67
     7
 79
     5
170
     0
171
     0
290
     0
174
     0
 93
        1
 44
0.0
173
     0
291
     1
 45
0.0
1001
ACAD
1000
AcDbSavedByObjectVersion
1070
     0
  0
ENDSEC
  0
EOF
